<svg id="Calque_1" data-name="Calque 1" xmlns="http://www.w3.org/2000/svg" viewBox="0 0 3264 3264"><defs><style>.cls-1{fill:#fff;}.cls-2{fill:#fee905;}.cls-3{fill:#267494;}.cls-4{fill:#fde905;}.cls-5{fill:#287596;}.cls-6{fill:#277595;}.cls-7{fill:#cd2e83;}.cls-8{fill:#333;}.cls-9{fill:#212121;}.cls-10{fill:#171717;}.cls-11{fill:#bbd2dc;}.cls-12{fill:#eaf1f4;}.cls-13{fill:#ccdee6;}.cls-14{fill:#c6d9e1;}.cls-15{fill:#fcf8c0;}.cls-16{fill:#d1d1d1;}.cls-17{fill:#e8e8e8;}.cls-18{fill:#9e9e9e;}.cls-19{fill:#fdfefe;}.cls-20{fill:#f6e509;}.cls-21{fill:#9fbecd;}.cls-22{fill:#fcfdfd;}</style></defs><title>LOGO-FLUEEDEN-1</title><path class="cls-1" d="M-1326-1236H1938V2028H-1326ZM800,818.41c2.64-.16,5.3-.21,7.91-.57a2.67,2.67,0,0,0,1.84-1.79c.08-.7-.83-2.17-1.34-2.18q-12.45-.24-24.91-.07c-.58,0-1.6,1.29-1.59,2a2.68,2.68,0,0,0,1.57,2.07c3.17.52,6.52-.38,10.13.9v6.17c0,7.31,0,14.62,0,21.93a13.68,13.68,0,0,0,.62,3.81,1.88,1.88,0,0,0,1.5.88c.54,0,1.44-.45,1.54-.85a22.93,22.93,0,0,0,.66-4.8c.19-8.62.3-17.25.43-25.88Zm362,11.27-1.74-1.74v-7.88l1.74-1.74c3.31-.1,6.63-.16,9.94-.32,2.27-.11,4.55-.3,6.8-.63.39,0,.88-1,.91-1.49s-.46-1.09-.8-1.58a1.35,1.35,0,0,0-.8-.49,11.93,11.93,0,0,0-2-.16c-6,0-12,0-17.93.08-.57,0-1.14.47-2,.86a12.14,12.14,0,0,0-.51,2.54q-.08,14.94,0,29.89c0,1.59-.29,3.35,2.08,4.81h11.2c2.65,0,5.31,0,8-.05a3.46,3.46,0,0,0,1.82-.53,2.3,2.3,0,0,0,1-1.5c0-.53-.36-1.48-.73-1.57a27.19,27.19,0,0,0-4.75-.77c-4.53-.33-9.15.55-13.89-.62-.11-2.34-.32-4.3-.25-6.25s-.63-4,1.66-6.18c4,0,8.57,0,13.16,0a8.58,8.58,0,0,0,2.69-.85c.25-.1.57-.48.55-.7-.06-.61-.1-1.47-.49-1.74a5.4,5.4,0,0,0-2.63-1C1170.68,829.85,1166.37,829.79,1162.06,829.68Zm-727.74-1.74v-7.88l1.74-1.74c3.31-.1,6.63-.16,9.94-.32,2.27-.11,4.55-.3,6.8-.63.39,0,.89-1,.91-1.49s-.46-1.09-.8-1.58a1.18,1.18,0,0,0-.8-.49c-4-.08-8-.17-11.94-.17a73.82,73.82,0,0,0-9.84.24,19,19,0,0,0-.66,3.25q-.07,15,0,29.89c0,1.6-.29,3.36,2,4.78,6,0,12.62,0,19.23,0a3.37,3.37,0,0,0,1.82-.53,2.32,2.32,0,0,0,.95-1.51c0-.52-.36-1.47-.74-1.57a27,27,0,0,0-4.75-.76c-4.53-.33-9.15.55-13.89-.62-.11-2.34-.32-4.3-.25-6.25s-.63-4,1.66-6.18c4,0,8.57,0,13.17,0a8.53,8.53,0,0,0,2.68-.85c.25-.1.58-.48.55-.7-.06-.61-.09-1.48-.48-1.74a5.28,5.28,0,0,0-2.64-1c-4.3-.2-8.61-.25-12.92-.36Zm-78.07.36-2.69.44c-1.32-1.76-.89-3.79-.92-5.76-.05-2.64-.16-5.28-.4-7.9-.05-.46-1-1.25-1.38-1.18a7.1,7.1,0,0,0-2.41,1.24,1.16,1.16,0,0,0-.33.86q0,17,.07,33.92a1.26,1.26,0,0,0,.45.84,3.59,3.59,0,0,0,1.56.93,2.35,2.35,0,0,0,1.79-.56,5.15,5.15,0,0,0,1.34-2.58c.23-2.64.07-5.31.32-7.94a2.62,2.62,0,0,1,4.25-1.91c3.83,3.69,7.55,7.49,11.21,11.35,2.17,2.29,4.44,2.66,7.36.74-3.64-7.43-12.41-11-15.14-19.37,4-6.31,10.19-10.44,14.82-15.62-.54-2-1.8-2.55-3-1.93C366.3,817.25,360.24,821.59,356.25,828.3ZM203.7,380.72c.67,1,1.15,2.35,2.08,3,.65.48,1.91.17,2.9.17q30.47,0,60.94,0a6.11,6.11,0,0,0,1.92-.77c.21-.88.44-1.83.66-2.78l0-314.8c0-1.67,0-3.33-.07-5a2.87,2.87,0,0,0-.09-1,3.2,3.2,0,0,0-.58-.76c-7.66-1.16-44.59-1.62-65.64-.77-.55,0-1.08.66-2.09,1.31ZM-5.85,834-4,832.14c4,0,7.69-1.77,11.56-2.12,5.28-.47,10.08-2.66,15.16-3.54s8.68-4.79,13.82-4.72c4-2.73,9.15-3.74,12.51-7.6,8.87-3.94,16-10.24,22.75-17,4.48-4.47,8.95-8.95,13.37-13.49a35.48,35.48,0,0,0,4.56-5.26c5.31-8.23,10.5-16.49,14.69-25.42,2.65-5.67,4.33-11.59,6.55-17.36,2.48-6.4,2.59-13.36,4.64-19.91,1-3.06.42-6.61.46-9.94.07-5.67.08-11.33.08-17q0-85.45.07-170.92c1.21-.53,2.42-1.52,3.64-1.52,8,0,15.8-1.32,23.68-2.17,9.21-1,18.46-1.6,27.69-2.36a3.2,3.2,0,0,0,1-.07c4.38-2.12,9.13-1.28,13.71-1.77s9.13-1.36,13.71-1.72c6.59-.52,13.14-.78,19.73-1.85,9.44-1.54,19.09-1.76,28.65-2.52,1.33-.1,2.83.27,4-.23,4.77-2.08,9.81-1.25,14.73-1.75s9.79-1.37,14.71-1.76c5.92-.46,11.83-.36,17.75-1.65,4.8-1,10-.31,14.94-.68,5.25-.39,10.46-1.48,15.71-1.69,10.93-.42,21.7-2.95,32.69-2.44a4.25,4.25,0,0,0,2-.17c5.06-2.41,10.5-1.13,15.74-1.68s10.47-1,15.71-1.58l.11,3.82c-2.49.75-5,1.31-7.46,2.27-12.21,4.86-24.22,9.76-34.68,18.38-8.73,7.2-16.84,14.51-22.13,24.59-4,3.28-4.72,8.52-7.43,12.57-4.57,6.84-5.33,15-8.23,22.47,1.14,4.43-2.41,7.85-2.26,12.36.5,15.63.16,31.29.22,46.94,0,1.93,0,4.17.9,5.72,1.13,1.9,1,3.68,1.19,5.63s1.68,3.55,1.9,5.4c.26,2.29.1,4.4,1.73,6.5,1.3,1.66.89,4.19,2.13,6.32,3.08,5.29,5.31,11.08,8.28,16.45a48.12,48.12,0,0,0,6.76,9.49c5.19,5.63,10.3,11.45,16.24,16.22,9.41,7.56,25.06,15.33,37.39,19.77,3,1.07,6.08,2.52,9.13,2.53,3.68,0,6.48,3.49,10.36,2a3.31,3.31,0,0,1,2.83.45c2.59,2.3,5.53,1.58,8.51,1.57,5.66,0,11.5-.49,16.94.71,8.95,2,17.95,1.82,26.76.94,6.59-.66,13.18-.95,19.76-1.5,5.16-.42,10.63,1.39,15.39-2,4.12,1,7.73-.86,11.32-2.25,8.47-3.29,17.71-4.36,25.62-9.35,1.74-1.1,4.45-.93,6.3-2.37,5.13-4,11.36-6.16,16.42-10.52,3.46-3,7.14-5.8,10.57-8.9,1.2-1.08,2.34-2.42,4.84-2.07,1.14,11-.25,22.19.7,32.64.89.81,1.12,1.21,1.36,1.22q12,.12,24,.18a79.22,79.22,0,0,1,9,.09c14.24,1.74,18.08,1.68,33.67-1.23a90,90,0,0,0,.2-10.68q0-281-.07-561.92c0-2,.08-4,0-6-.09-1.56-.39-3.11-.64-5-22.14,0-43.75,0-65.37,0-.56,0-1.12.54-2.16,1.06-.65,2.59-.3,5.56-.3,8.48,0,29.67-.1,59.33,0,89a267.05,267.05,0,0,1-1.81,36.11c-1.4,1.45-2.75,3.52-4.66,4.71-4.42,2.76-8.41,6.05-12.6,9.08a169.12,169.12,0,0,1-23,14,174.65,174.65,0,0,1-21.37,8.92c-7.36,2.57-14.76,5.35-22.37,6.84-17.87,3.49-17.58,4.3-36.25,4-1,0-2,.06-3,0-6.9-.63-13.85-1-20.68-2-3.8-.61-7.34-2.64-11.08-3.74-10.75-3.15-18.35-10.65-24.48-19.23-5.93-8.29-8.91-18.29-10.08-28.43a303.25,303.25,0,0,1-1.9-31.75c-.24-30-.06-60-.12-90,0-2.2.93-4.69-1.17-6.55-13-1-58.65-.73-67,.44-.73,2.75-.41,5.74-.45,8.65-.09,7,.16,14-.08,21-.23,6.59.23,13.12-1,19.79s-.28,13.95-.3,20.95c0,17.33-.06,34.66-.15,52,0,2.31-.35,4.61-.53,6.91-1.83,1.1-1.83,1.1,0,2.2.49,8.56,2.64,17,2.65,25.58,0,2.59-.5,5.73.74,7.64,1.68,2.59-.16,5.77,1.59,7.46,2.26,2.2,1.17,5,2.56,7.28,5.37,8.83,8,19.36,16.33,26.37.44.37.47,1.19.87,1.65,1.92,2.26,3.48,5.33,5.94,6.51,4.23,2,6.39,6.76,11.14,7.81,3.22,4,8.38,4.78,12.44,7.39a39.83,39.83,0,0,0,12.34,5.07c4,1,7.53,4,12,2.94,3.64,3.49,8.17,1.62,12.32,2,2,.18,4,.11,6,.34,4.24.5,8.46,1.4,12.71,1.65,16.59,1,33.1-.49,49.61-1.94a6.41,6.41,0,0,0,1-.07c8.9-2.29,18-3.41,26.94-5.74,20.21-5.31,39-13.78,56.92-24.42,5.36-3.18,10-7.57,15.89-9.84l2.74.07c2.18,1.38,1.32,3.57,1.32,5.43q.11,41.45.12,82.89,0,43.95,0,87.89c0,1.87-.31,3.73-.47,5.5-.9.07-1.32.23-1.55.09a13.27,13.27,0,0,1-2.4-1.72c-13-12.72-28.85-20.7-45.66-27.11-8.61-3.28-18-3.74-26.38-7.8a1,1,0,0,0-.79.08c-3.8,2.35-6.94-1.14-10.47-1.18,0-1,.06-1.91.1-2.87,3.33-1.62,6.28.95,9.6.87,6-.14,11.8-1.24,17.7-1.71,9.43-.75,18-3.87,26.19-8.19a30.78,30.78,0,0,0,11.5-10.8c3.8-5.89,3.87-12.55,1.72-19.09-3.7-11.32-11.75-18.81-21.84-24.57a54.85,54.85,0,0,0-36.28-7A132.76,132.76,0,0,1,477,416c-11.94.06-23.7,2.9-35.67,2.24a2.51,2.51,0,0,0-1,.05c-5.74,2.26-11.8,1.27-17.71,1.79s-11.8,1.32-17.71,1.81c-10.54.88-21.1,1.61-31.66,2.41a5.68,5.68,0,0,0-1.95.27c-4.41,2.1-9.17,1-13.74,1.59s-9.13,1.62-13.7,1.67c-10.29.13-20.35,2.94-30.66,2.48a2.29,2.29,0,0,0-1,.07c-4.39,2-9.12,1.31-13.71,1.76s-9.13,1.53-13.71,1.66c-10.93.32-21.67,3-32.66,2.51a4.5,4.5,0,0,0-2,.11c-5.39,2.38-11.14,1.24-16.71,1.81s-11.12,1.64-16.7,1.76c-9.95.21-19.67,3-29.67,2.42a2.17,2.17,0,0,0-1,.07c-4.72,2.16-9.8,1.25-14.71,1.75s-9.79,1.32-14.71,1.78c-9.21.86-18.44,1.57-27.66,2.35a5.52,5.52,0,0,0-1.92.38c-3.47,1.68-7.13,1.24-10.78,1.09,0-3.66-.11-7.32-.11-11V34.39c6.94-.44,13.7-2.14,20.59-3,5.21-.64,10.68-.56,15.65-2,6.42-1.91,13.05-1.57,19.51-3.07,7-1.64,14.47-1.38,21.6-2.66,5.56-1,11.3-1,16.65-2.26a66.32,66.32,0,0,1,15.74-1.48,24.9,24.9,0,0,0,9.54-1.59c3.17-1.25,7.19-.33,10.84-.4a1.56,1.56,0,0,0,.87-.43c2.88-2.37,6.24-1.55,9.52-1.56a22.52,22.52,0,0,0,6.78-.73,87,87,0,0,1,16.24-3.23c6.88-.85,14-.72,20.62-2.43,5.63-1.45,11.18-1.38,16.76-1.67,4.55-.24,9,.48,13.46-1.78,2.81-1.42,6.37-1.5,9.63-1.82,9.22-.92,18.45-1.65,27.68-2.46a5.83,5.83,0,0,0,2-.14C373.89-.25,378.26.3,382.53-.12s8.46-1.3,12.72-1.7c9.21-.88,18.64-.71,27.63-2.61s18.4-1.12,27.53-3.05c7.67-1.62,15.77-1.36,23.67-2.08,11.19-1,22.34-3.23,33.67-2.66a9.89,9.89,0,0,0,4-.2c5.11-2.11,10.49-1.2,15.74-1.7s10.48-1.24,15.73-1.7c7.23-.64,14.63.47,21.71-1.94,11,.23,21.81-1.74,32.71-2,13.61-.34,27-3.08,40.69-2.47a2.79,2.79,0,0,0,1,0c7.45-2.33,15.12-1.47,22.72-1.57,1.78,2.57,2.32,2.56,4-.14,5.82-.5,11.63-.67,17.47-1.49,7.39-1,15-.33,22.55-.38,2.22,2.58,3.92,2.54,6-.13,7.59-.39,15.25.2,22.74-1.62l68,0c7.19,1.61,14.49,1.39,21.78,1.47,2.33,0,4.67.17,7,.07,13-.57,25.83,1.26,38.74,2a19.56,19.56,0,0,1,3.73,1,20.34,20.34,0,0,0,4.7,1.08c8.66.07,17.33-.28,26,.07,3.79.16,7-.94,10.38-2.15,5.61-2,10.89-4.45,15-9,5-5.46,7.85-12,9.86-19,.72-2.5,2.12-5.29,1.56-7.54-1.08-4.34-1.84-9.1-5-12.58-4.44-4.88-8.86-9.88-15.53-12-3.4-1.07-6.72-2.44-10.05-3.74a36.06,36.06,0,0,0-11.57-2.13c-3.55-.18-7-1.45-10.6-1.69-5.65-.36-11.34-.07-17-.43-5.92-.37-11.82-1.17-17.73-1.78-1.66-2.7-2.19-2.72-4-.15-4.24,0-8.57.46-12.7-.23A145.14,145.14,0,0,0,816-95.94c-2.07-2.7-3.76-2.74-6-.14q-40.66-.09-81.33-.18c-11.57,0-23.13.08-34.7.13-2.22-2.58-3.93-2.54-6,.14-3.26.1-6.69-.4-9.76.41-8,2.14-16.17,1.18-24.26,1.47-1.78-2.61-2.32-2.59-4,.13-5.24.61-10.46,1.39-15.71,1.78-7.24.55-14.59-.35-21.69,1.88-11-.35-21.77,1.74-32.67,2.11-11.59.39-23,3-34.65,2.43a2.56,2.56,0,0,0-1,0c-5.39,2.21-11.12,1.31-16.7,1.81s-11.12,1.61-16.69,1.74c-10.61.24-21,3-31.66,2.45-6.08,2.07-12.42,1.62-18.68,1.94-1,.05-2.15-.19-3,.23-4.08,2.08-8.49,1.14-12.73,1.65s-8.45,1.32-12.7,1.72c-9.54.9-19.1,1.62-28.65,2.41a4,4,0,0,0-1,.07c-7.87,3-16.32,1.44-24.46,3.22-9,2-18.37,1.85-27.59,2.64a7.57,7.57,0,0,0-2,.12c-7.88,2.94-16.33,1.47-24.44,3.31s-16.39,1.77-24.61,2.55a5.73,5.73,0,0,0-2,.18c-4.37,2.21-9.14,1.23-13.71,1.78s-9.11,1.53-13.69,1.8c-7.26.43-14.31,2.77-21.65,2.32-7.2,2.84-15,1.42-22.43,3.38-5.3,1.39-11,.84-16.56,2.16-5.33,1.27-11,.8-16.57,2-4.73,1.06-9.76.89-14.66,1.92s-9.91,0-14.54,2.28c-7-.81-13.57,2.62-20.54,2.17-1-.07-2.2-.29-3,.16-3,1.78-6.31,1.59-9.59,1.82-3.57.25-7.11.87-10.66,1.33-.56-1.84-2.17-1.4-3.48-1.61-.09-3.33-.27-6.65-.27-10,0-20.67-.34-41.34.12-62,.2-8.71-2.46-17-2.54-25.55,0-.61-.49-1.2-.69-1.81-4.37-12.91-8.11-26-15.5-37.74-5.28-8.35-10.76-16.54-17.64-23.67A128.86,128.86,0,0,0,65.14-212C53.5-220.88,41.2-228.37,27.71-233c-7.35-2.52-14.75-5.66-22.35-6.52C-4.46-240.61-14.28-242-24.3-242q-280,.25-559.92.12h-28c-5,0-10,.45-15-.08s-9,2-13.6,2c-9,0-17.31,3-25.67,5.58-9.52,2.95-18.87,6.35-27.2,12.28-3.37,2.4-7,4.5-10.45,6.91a77.7,77.7,0,0,0-10.49,8.85q-6.37,6.34-12.65,12.8a31.08,31.08,0,0,0-4,4.41c-7.83,11.91-14.94,24.19-20,37.6-.78,2.1-.44,4.4-2,6.45s.36,5.18-1.81,7.43c-1.85,1.92-.31,4.49-.76,6.71a6.08,6.08,0,0,1-1,2.71c-1.47,1.74-1.16,3.75-1.16,5.71,0,8,.12,16,.12,24V688.35c0,8.66-.11,17.32-.11,26,0,1.94-.28,3.92,1.06,5.74a6.59,6.59,0,0,1,1.11,3.65c0,2.64,0,5,1.55,7.55,1.36,2.29-.17,5.9,2.26,8.27-.16,3.88,3.13,6.48,3.88,9.8a27,27,0,0,0,4.07,9.82c1.63,2.37,2.82,5,4.33,7.5,5.13,8.38,10.33,16.73,17.35,23.74a139.12,139.12,0,0,0,14.68,13.14c12,9.06,27.33,19.68,48.71,24.68,2.3,3.39,6.4.45,9.2,2.71s6.43.69,9.67.81c9.32.36,18.65.46,28,.66.08,1.24.15,2.48.23,3.71-1.54.35-1.5,2-2.27,2.84-8,9.07-13.72,19.54-19.3,30.17-3.72,7.08-5.53,14.82-8.5,22.14a23.14,23.14,0,0,0-1.74,12.34,27.59,27.59,0,0,1,0,4c0,8.86-.84,17.77,1.38,26.53a16.76,16.76,0,0,1,.07,3.95c-2.36,1.9-2.29,2.46.47,4-.57,4.44,1.81,8.14,3.22,12,2.11,5.83,6,10.68,9.52,15.75a103.05,103.05,0,0,0,22,22.43c3.2,2.3,6.18,4.8,10.09,5.78,2.69,3.84,7.33,4.09,11.1,5.88,5.6,2.68,11.43,4.79,17.85,4,1.51,2.8,2.1,2.86,4,.45l5.86.51c.2,2.25,1.27,3.28,3.69,3.21s4.51,0,4.71-3.15l9.82-.69c2.34,2.6,4.09,2.49,6-.39,3.22,0,6.49.87,9.38-1.83,1.3-1.22,3.53-1.52,5.38-2.1,17.28-5.46,32.57-14.21,45.37-27.15,4.43-4.49,8.9-8.94,13.32-13.44a30.32,30.32,0,0,0,3.95-4.47c7.27-11.16,14.7-22.2,19.45-34.82a115.85,115.85,0,0,0,6.85-26.27c1.1-8.83,0-17.9.42-26.85.19-4.15-1.71-7.65-2.47-11.46-1.12-5.63-2.06-11.5-5.48-16.53-2-3-2.52-6.69-3.21-10.21,3.31-.17,6.63-.48,9.95-.48q105.46,0,211,0c2.65,0,5.31.16,8,.25l.48,4.08c-2.41,1.77-1.73,4.73-2.76,7-2.13,4.76-4.07,9.47-3.43,14.94.31,2.6.44,5.58-.54,7.89-1.8,4.22-1.27,8.48-1.39,12.74-.1,3.66.59,7.41,0,11-1.06,6.14,1,11.8,2.78,17.17,6.9,20.33,19,36.76,37.15,48.88,7.14,4.78,15.22,7.08,22.57,11.11,3.94,0,7.4,2.46,11.17,2.6,9,.33,17.94.14,26.91.06,2.61,0,5.19,0,7.74-1.29a10.69,10.69,0,0,1,5.81-.7A10.7,10.7,0,0,0-98.28,966c1.63-1,3.64-1.36,5.39-2.19,6.43-3.07,13-5.93,19.2-9.41,9.8-5.49,17.91-13.18,25.77-21.09A156,156,0,0,0-32.3,915.36c8.52-11.7,15.56-24.12,20.13-37.84C-7,862-6,854.56-6,839-6,837.32-5.9,835.66-5.85,834ZM1112.26,526c-.1-10.32-.18-20.64-.3-31,0-1.6.37-3.37-1.62-4.7-22,0-44.28,0-66.57.06-.49,0-1,.83-1.52,1.34q0,117.85,0,235.84a2,2,0,0,0,.21.94,8.46,8.46,0,0,0,1.18,1.21c1.09,0,2.7.14,4.3.13q31,0,62-.1a1.63,1.63,0,0,0,.85-.38,11.55,11.55,0,0,0,1.2-1.1c0-44.14,0-88.71,0-133,3.94-3.84,6.49-8.31,11.56-9.94,15.3-12,15.33-12,30.19-19.39,4.08-2,8.12-4.16,12.32-5.91,2.67-1.1,5.66-1.43,8.4-2.38,3.07-1.07,6-2.59,9.07-3.62,2.76-.93,5.76-2.3,8.47-2,3.64.43,6.24-1.67,9.38-2.31,4.84-1,9.9-1,14.55-2.21,8-2,15.87-.75,23.78-1.15a8.92,8.92,0,0,1,3.87.63c4.23,1.83,8.35,4,13.22,2.74a4.65,4.65,0,0,1,1.93.31c1.85.44,17.28,7.73,19.18,8.68,8.37,4.15,12.87,11.75,17.41,19.3,1.16,1.93,2.75,4.17,2.63,6.18-.19,3.24,2.47,5.75,2.1,8.3-.54,3.75,1.9,6.2,2.53,9.35a46.32,46.32,0,0,1,1.38,8.76c0,5,.14,10,.14,15q0,48.48,0,97c0,2.22-.82,4.65,1.14,6.86a15.72,15.72,0,0,0,2.62.4q32,0,64-.07a1.72,1.72,0,0,0,.88-.32,7.53,7.53,0,0,0,.92-.81,18.44,18.44,0,0,0,.37-2.68q.15-68,.22-136c0-14.7-1.46-22.36-6.37-37.6a84.28,84.28,0,0,0-20-33.45c-11.71-12.07-25.89-19.86-41.74-24.9-4.34-1.38-8.7-3.42-13.13-3.67-7.59-.41-14.83-3.41-22.53-2.69a13.06,13.06,0,0,1-3.9-.5c-9.56-2.08-19.22-.64-28.82-.88-4.73,2.16-9.84,1.73-14.74,1.54-5.1-.19-9.63,2-14.56,2.34-5.18.4-10.59.86-15.36,2.7-3.41,1.32-7,1.24-10.42,2.74a83.21,83.21,0,0,1-10.93,3.57,61.13,61.13,0,0,0-10.06,3.22c-5.77,2.76-11.73,5.09-17.5,7.82a138.91,138.91,0,0,0-12.52,7.17c-3.84,2.33-7.85,4.51-11.23,7.39-1.81,1.55-3.74,1-5.44,1.82ZM933.47,296.12c-5.56,5.37-10.38,10-15.12,14.63a20.35,20.35,0,0,1-6.37,4.4c-5,2.14-9.62,5.79-14.76,6.65-5.83,1-10.75,4.74-16.85,4.52-2.21-.08-4.43,1.29-6.69,1.48-7.25.6-14.49,1-21.74,1.75-14.6,1.57-29.08-.46-46.3-3.11-9.56-1.48-18.29-4.72-26.85-8.76-12.48-5.89-20.81-15.77-26.24-28.24a53.29,53.29,0,0,1-2.37-7.41c-.12-.45.47-1.1.74-1.65a3,3,0,0,1,.79-.57,3.24,3.24,0,0,1,1-.06l1,0h248.84a8.34,8.34,0,0,0,1,0,3.42,3.42,0,0,0,.94-.19,4.87,4.87,0,0,0,.72-.45,8.77,8.77,0,0,0,2.31-9.34c-1.45-4.27-1.32-8.53-1.34-12.79,0-6.64-2.08-12.94-2.85-19.47-1-8.68-7.21-23.89-11.55-32.1a106.75,106.75,0,0,0-28.2-34.14A117.93,117.93,0,0,0,933,153.88c-8.79-3.41-17.43-7.42-27.08-7.93-3.23-2.09-7.32-.95-10.41-2.28-4.56-1.95-9.31-.79-13.59-2.18-4.93-1.6-9.83-1.45-14.76-1.51-22.91-.31-45.85-1.3-68.66,2-3.24.47-6.66-.12-9.62,1.8-5.36-.58-10.13,2.9-15.52,2.28a5.33,5.33,0,0,0-2.8.61c-7.82,4-16.87,4.69-24.39,9.4-5.58.59-10.07,3.91-14.8,6.34a67.48,67.48,0,0,0-14.34,9.87c-6.43,5.77-12.91,11.73-18.13,18.55a100.08,100.08,0,0,0-12.75,22.67c-1.09,2.64-1.18,6-2.87,8-2.2,2.7.11,6-2.1,8.41-2.37,2.59-.51,5.77-.93,8.66-.92,6.54,0,13.21-1.82,19.76a18.29,18.29,0,0,0,0,9.9c1.84,5.89,1,11.87,1.65,17.78.24,2.3-.33,4.7,0,7a33.55,33.55,0,0,0,2.11,6.35c2,5.36,3.35,11,5.79,16.17a101.56,101.56,0,0,0,36.52,42.68,143.78,143.78,0,0,0,16,9c5.41,2.65,10.6,5.74,16.66,7.28,6.79,1.72,13,5.7,20.36,5.36a2.43,2.43,0,0,1,1.77.7c2.49,2.9,6.22.59,9.31,2.4,2.52,1.46,6.37.67,9.63.81,5,.22,10.18-.39,14.94.76,6.27,1.52,12.5,1.44,18.76,1.39,12.92-.1,25.87.91,38.73-1.54a52.54,52.54,0,0,1,14-.52c5,.42,9.32-3.61,14.4-1.87a19.3,19.3,0,0,1,11.37-2.12c.5.07,1.07-.79,1.68-1,3.05-1.05,6.12-2.09,9.21-3,13.36-4.12,25.47-9.29,35.16-16.13,7.2-5.09,14.93-9.6,20.8-16.39,2.15-2.48,3.93-5.28,6.13-7.71,8.75-9.66,13.62-21.45,18.3-33.32.64-1.64,1.16-3.85-.48-5.52a6.92,6.92,0,0,0-1.88-.57Q966.45,296.11,933.47,296.12Zm429.66-16.22a27,27,0,0,0,.74-3.82c.06-5.95,0-11.86-1.48-17.75-1-4.09.21-8.49-1.63-12.69-1.69-3.84-.36-8.52-2.74-12.33-2.64-14-9-26.46-16.31-38.43-6.18-10-15.41-17.3-23.69-25.43-.67-.66-1.76-.87-2.54-1.45a106.17,106.17,0,0,0-28.42-15.21,208.14,208.14,0,0,0-22.29-7c-4.54-1.06-9.35-.72-13.48-2.27s-8.61-.75-12.62-2c-4.57-1.41-9.14-1.57-13.75-1.57-22.25,0-44.55-1.78-66.69,1.87-7-.47-13.52,3.06-20.54,2.47-8.49,3.3-17.69,4.23-26.13,7.83-5.31,2.27-11.25,3.35-16.16,6.22-6.92,4-14.54,7.2-20.13,13.32-7.16,3.32-11.83,9.59-16.66,15.31s-9.73,11.46-12.26,18.71c-1.15,3.32-3.38,6.08-4.34,9.62-.9,3.3-1.29,7-3.66,9.83.28,5.24-2.52,9.88-2.32,15.32.54,15.3.22,30.63.21,46,0,2.61-1,5.4,1,7.63,2.2,2.44-.63,6.11,2.24,8.28,2.17,8.53,6.72,16,10.92,23.56a84.5,84.5,0,0,0,15.31,20.38c2.62,2.49,5.77,4.4,8.41,6.85a63.55,63.55,0,0,0,16.3,10.91c6.66,3.16,13,6.95,20.13,9.17,3,.93,6.42,1.66,8.82,3.4,3,2.17,6.46.42,9.34,2.59,2.5,1.89,6.14.86,9.26,2.43,2.61,1.32,6.58-.77,9.29,2.08,3.31,0,6.62.05,9.93.14,4.33.13,8.87-.45,12.93.69,4.63,1.31,9.18,1.28,13.79,1.33,10,.11,20,0,30,0,2,0,4.14.34,6-.23,7.47-2.31,15.13-1.44,22.73-1.69a19,19,0,0,0,4.81-.65c5.61-1.68,11.06-4,17.14-3.37a6.59,6.59,0,0,0,2.82-.59c13-4.88,26.56-8.58,38.82-15.51,5.44-3.08,18.13-11.74,22.29-15.56a111.83,111.83,0,0,0,21.31-27.05c4.39-7.64,7.08-15.84,10.3-25.1-12.48,0-24.07-.05-35.65,0-11.94.06-23.89-.26-35.94.22-4.67,9.24-12.81,14.22-20.93,19-5.49,3.23-11.21,6.3-17.5,7.85-7,1.71-13.93,4.37-21,4.59-10.62.35-21.06,2.51-31.73,2.16-7.94-.26-15.86-.33-23.73-1.71-3.84-.68-7.7-.24-11.65-1.67-3.53-1.27-7.62-1.28-11.43-2.41a77.31,77.31,0,0,1-28.34-15.1,47.1,47.1,0,0,1-12.11-16.61c-1.69-3.74-2.41-7.92-3.55-11.84.43-.29.7-.65,1-.65C1192.51,279.9,1277.46,279.9,1363.13,279.9Zm-355.63,346c1.91-11.95-1.11-22.35-1.62-32.91-2.11-3.58-1-7.9-2.36-11.47-3.59-9.74-6.37-19.74-11.34-29-7.91-14.84-18.06-27.49-31.93-37a150.61,150.61,0,0,0-33-16.83c-3.64-1.36-7.42-2.33-11.16-3.42s-7.49-2.93-11.23-2.91c-4.15,0-7.58-2.64-11.54-2.19-4.13.47-7.68-1.84-11.58-2-15.59-.51-31.09-3-46.74-2-2.32.14-4.87-.48-7,.28-4.87,1.78-9.86,1.43-14.78,1.42-5.34,0-10.4,1.34-15.58,2.09-3.89.56-8-.17-11.57,2-6.3.16-12.11,2.43-18.11,3.93s-12,2.85-17.39,6.11c-5.75.2-10.1,4-15,6.24-5.21,2.46-9.78,6.29-14.67,9.34s-8.32,7.44-12.54,11c-1.77,1.52-3.27,3.33-4.92,5a62,62,0,0,0-11.17,16.08,175.12,175.12,0,0,0-9.28,22.07c-1.16,3.36.07,7.36-2.89,10.16-.35.33-.12,1.29-.12,2,0,14.65-.07,29.31.15,44,.07,4.82-1.35,9.95,2,14.36-1.2,4.19,1.81,7.46,2.82,11.09a65.45,65.45,0,0,0,4.56,11.61c2.82,5.58,6.63,10.39,9.87,15.62,5.17,8.33,12.35,14.84,19.78,20.81a113.91,113.91,0,0,0,23.07,13.81c2.91,1.37,5.67,3.05,8.61,4.34a61.86,61.86,0,0,0,9.89,3.72c4.32,1.08,8.43,2.91,12.9,3.4,2.06,2.54,5.33.11,7.43,1.67,2.39,1.79,4.86,1.76,7.54,1.57a4.12,4.12,0,0,1,2.76.62c2.32,2,5,1.42,7.63,1.47,3,.07,6-.22,9,0,7.58.49,15.16.55,22.77,1.49a88.49,88.49,0,0,0,24.76-.72,98.53,98.53,0,0,1,24.92-.73c6.49.63,12-3.43,18.34-2.21,5.68-3.53,12.75-2.58,18.55-5.72,7.39-.24,13.66-4.13,20.42-6.4a72.09,72.09,0,0,0,18.83-10c7.76-5.56,16-10.62,22.38-17.9,3-3.46,6-7,8.78-10.69,7.78-10.24,12.74-21.78,16.12-34.63-5-1.06-9.62-.44-14.2-.55s-9.33,0-14,0h-15c-4.66,0-9.33-.06-14,0s-9.29-.45-14.91.79c-3.38,3.62-7.3,7.7-11.09,11.91-5.41,6-12.64,9-19.89,11.66-13.61,5-27.59,8.27-42.29,8-5.53-.09-11.22-.86-16.64,1.6a6,6,0,0,1-4.83-.25c-2.51-1.48-5.11-1.42-7.72-1.34-11,.34-21.63-1.77-32.24-4.22a67.06,67.06,0,0,1-24.85-11.23c-7.88-5.83-14.83-13.1-18.45-22.87-1.4-3.77-2.72-7.21-1.29-11.73,5.66,0,11.27-.11,16.88-.14s11.33,0,17,0h187c5.67,0,11.34,0,17,0S1001.53,626,1007.5,625.93Zm332.55,196.43c-3.48-6.54-8.42-9.14-15.07-8.79-2.65.15-5.32,0-8,0-1.6,0-3.36-.31-4.45,1.41-1.08,18.26-.8,30.38.91,36.64h17.77c.93-.89,1.73-2.09,2.85-2.65,4.33-2.16,6-5.67,6-10.34C1340,833,1340.05,827.37,1340.05,822.36Zm-831.92-8.44c0,11.82,0,22.43,0,33a35.25,35.25,0,0,0,.76,4.9c7.15,0,13.77,0,20.39,0,1.34,0,2.59-.29,2.89-1.94.21-1.15-.94-2.33-2.43-2.43l-12.85-.85c-1.61-.11-3.36.24-4.55-1.75-.07-.71-.2-1.68-.24-2.64s0-2,0-3c.17-3.59,1.22-4.69,4.8-4.81,2.65-.08,5.31.06,8,0a41.8,41.8,0,0,0,5.81-.64c.4-.07.88-1,.89-1.51a2,2,0,0,0-.84-1.56A6.86,6.86,0,0,0,528,830c-4-.07-8,0-12-.08a3.76,3.76,0,0,1-3.82-3.77c0-2.54-1-5.36,2-8.08h9.24a64.75,64.75,0,0,0,7-.16,2.62,2.62,0,0,0,1.75-1.87c.05-.71-.79-2.06-1.4-2.16a32.67,32.67,0,0,0-5.94-.25C519.55,813.68,514.28,813.35,508.13,813.92Zm730,32.45c0-3,0-4.93,0-6.87.11-3.7,1.19-4.93,4.52-5.08,2-.08,4,0,6,0,2.63-.08,5.27-.2,7.88-.47.43,0,1.17-1,1.08-1.4a3.84,3.84,0,0,0-1.41-2.29,6.54,6.54,0,0,0-2.93-.27c-3.66,0-7.32.06-11-.05-2.67-.09-4.09-1.6-4.11-4.51,0-2.23-.76-4.68,1.63-7,3.44-.72,7.41-.18,11.34-.36,2-.08,3.93-.17,5.87-.44.47-.06,1.24-.93,1.17-1.28-.19-.85-.76-2.27-1.22-2.29-6-.26-11.9-.35-17.85-.41-1.59,0-3.36-.37-4.48,1.29-1.1,15.58-.84,29.83.75,36.86,6.8.2,13.72.12,20.65,0a3.88,3.88,0,0,0,1.72-.86,1,1,0,0,0,.4-.77c-.09-.59-.13-1.42-.52-1.69a5.45,5.45,0,0,0-2.6-1C1249.77,847,1244.49,846.76,1238.12,846.37ZM586.73,813.7a30.7,30.7,0,0,0-.58,3.7q0,15.9.08,31.81a2.78,2.78,0,0,0,.75,1.72,3.56,3.56,0,0,0,1.68.68.92.92,0,0,0,.78-.41,6.88,6.88,0,0,0,1.11-2.57c.16-3.25.11-6.5.14-9.8,3.63-1.63,7-1.06,10.17-.86a11,11,0,0,0,7.27-2.18c4.37-3,7-9.42,5.57-13.73-1.33-4.07-6.61-8.13-11.33-8.31C597.42,813.56,592.45,813.7,586.73,813.7ZM1096,841.77c-.59.93-.71,1.3-1,1.47-.53.33-1.39.41-1.65.86-2.72,4.73-7.17,4.49-11.33,3.39s-6.58-3.62-6.16-7.87c.2-2,0-4,0-6,0-6,0-12-.15-18,0-.6-1.32-1.58-2.06-1.6s-2,.91-2.07,1.5c-.24,3.31-.24,6.65-.21,10,.06,6,0,12,.35,18,.33,5.16,2.92,7.62,8.19,8.26a46.22,46.22,0,0,0,8.95.35,12.26,12.26,0,0,0,11.46-11.62c.2-8,.05-16,0-24a3.09,3.09,0,0,0-.57-1.78,2.2,2.2,0,0,0-1.55-.79c-.54,0-1.42.39-1.56.8a12.86,12.86,0,0,0-.68,3.78C1095.93,826.47,1096,834.45,1096,841.77Zm-174.64-27.9c-.56,1.11-1.09,1.67-1.09,2.24q-.08,16.39,0,32.79a3.07,3.07,0,0,0,.59,1.79,2.34,2.34,0,0,0,1.55.87c.54,0,1.45-.43,1.55-.83a36.12,36.12,0,0,0,.73-4.77c.36-3.19-.84-6.55,1.1-10.09h9.81a24.49,24.49,0,0,0,4.93-.19,2.75,2.75,0,0,0,1.56-2.1c0-.66-.91-1.62-1.65-2a10.71,10.71,0,0,0-2.93-.26c-4.19-.45-8.37-.92-12.44-1.37-1.27-7.19-1.33-7.19,1-12,5.36,0,11,.06,16.58-.1.59,0,1.59-1.29,1.6-2s-.93-2.08-1.5-2.1c-4.63-.21-9.27-.2-13.9-.18C926.16,813.62,923.59,813.79,921.31,813.87Zm77,38c7.42,0,13.7.06,20-.1.62,0,1.6-1.28,1.69-2.05a2.53,2.53,0,0,0-1.42-2c-3.59-.5-7.22-.7-10.83-1-4.12-.39-5-1.29-5.07-5.61-.08-7,0-14,0-20.92a30.89,30.89,0,0,0-.34-4.9c-.09-.49-1-1.28-1.36-1.21a7.15,7.15,0,0,0-2.4,1.24,1.16,1.16,0,0,0-.32.87q0,12.95-.05,25.89C998.14,844.88,998.23,847.82,998.29,851.83ZM724.14,833h0c0,4.65,0,9.29,0,13.94a12.86,12.86,0,0,0,.68,3.78,1.9,1.9,0,0,0,1.54.83,2.35,2.35,0,0,0,1.57-.88,3.06,3.06,0,0,0,.6-1.79q0-16.42,0-32.84c0-.55-.55-1.12-.9-1.63-.17-.24-.51-.55-.74-.52-.61.08-1.47.13-1.73.53a5.18,5.18,0,0,0-.94,2.65C724.1,822.39,724.14,827.7,724.14,833Z" transform="translate(1326 1236)"/><path class="cls-2" d="M-612.13,832.4c-9.32-.2-18.65-.3-28-.66-3.24-.12-6.82,1.5-9.67-.81s-6.9.68-9.2-2.71c-21.38-5-36.66-15.62-48.71-24.68a139.12,139.12,0,0,1-14.68-13.14c-7-7-12.22-15.36-17.35-23.74-1.51-2.47-2.7-5.13-4.33-7.5a27,27,0,0,1-4.07-9.82c-.75-3.32-4-5.92-3.88-9.8-2.43-2.37-.9-6-2.26-8.27-1.54-2.58-1.52-4.91-1.55-7.55a6.59,6.59,0,0,0-1.11-3.65c-1.34-1.82-1.06-3.8-1.06-5.74,0-8.66.11-17.32.11-26V-98.54c0-8-.11-16-.12-24,0-2-.31-4,1.16-5.71a6.08,6.08,0,0,0,1-2.71c.45-2.22-1.09-4.79.76-6.71,2.17-2.25.3-5.45,1.81-7.43s1.21-4.35,2-6.45c5-13.41,12.15-25.69,20-37.6a31.08,31.08,0,0,1,4-4.41q6.28-6.44,12.65-12.8a77.7,77.7,0,0,1,10.49-8.85c3.44-2.41,7.08-4.51,10.45-6.91,8.33-5.93,17.68-9.33,27.2-12.28,8.36-2.59,16.71-5.62,25.67-5.58,4.62,0,8.78-2.5,13.6-2s10,.09,15,.08h28q280,0,559.92-.12c10,0,19.84,1.37,29.66,2.47,7.6.86,15,4,22.35,6.52C41.2-228.37,53.5-220.88,65.14-212a128.86,128.86,0,0,1,14.77,13.19c6.88,7.13,12.36,15.32,17.64,23.67,7.39,11.7,11.13,24.83,15.5,37.74.2.61.69,1.2.69,1.81.08,8.58,2.74,16.84,2.54,25.55-.46,20.65-.15,41.32-.12,62,0,3.32.18,6.64.27,10a3,3,0,0,0-.4,1.91c-5.85,1.06-11.87,1.55-17.58,2.8C92-32,85.38-32.09,78.93-30.39c-6.64,1.74-13.74,1.72-20.62,2.63-5.22.69-10.41,1.63-15.61,2.47C35.88-24.2,29.06-23,22.22-22c-6.2.9-12.58,1-18.63,2.53C-7-16.88-17.9-16.31-28.54-14.09c-5.8,1.21-11.92,1-17.62,2.54C-56.41-8.87-66.94-8-77.31-6.3-87.38-4.65-97.5-3-107.57-1.36-116.27.09-125,1.79-133.74,3.4-143.42,5.2-153.18,7-163,8.17c-5.23.63-10.48,1.52-15.61,2.55-13.88,2.79-27.83,5.1-41.76,7.57-4.86.86-9.75,1.55-14.6,2.46-12.61,2.35-25.25,4.59-37.77,7.36-6.11,1.35-12.34,1.76-18.44,3.39-7.61,2-15.49,3-23.26,4.43-5.52,1-11.08,1.71-16.58,2.77-8.71,1.68-17.37,3.63-26.09,5.29-8.42,1.6-17,2.48-25.28,4.56-11.49,2.89-23.21,4.62-34.73,7.32-11.21,2.62-22.65,4.22-33.88,6.75-9,2-18.08,3.52-27,5.58-8.33,1.92-16.77,3.27-25.07,5.35-10.2,2.57-20.61,4.3-30.91,6.47-11.57,2.44-23.12,5-34.7,7.45-9.32,2-18.58,4.31-27.91,6.2-13.54,2.74-27,6-40.41,9.14-23.37,5.4-46.59,11.43-69.82,17.44-7,1.8-13.91,3.93-20.29,7.6-9.86,5.67-17.25,13.2-19.89,24.61-.37,1.59-.88,3.36-.53,4.86,1.25,5.43,2.19,11,4.44,16.14a22,22,0,0,0,12.38,12.28,77.39,77.39,0,0,0,13.19,4c5.15,1,10.23,2.23,15.66,2,8.25-.31,16.53,0,24.68,2.13,10.52,2.79,20.88,5.88,30.73,10.65,16.55,8,31.32,18.76,44.75,31,17.18,15.69,34.06,31.77,48.76,50,10.21,12.63,19.79,25.7,29.22,38.9,22.95,32.1,41.52,66.75,59.63,101.67,4.55,8.77,8.47,17.87,12.67,26.83,5.45,11.65,11,23.27,16.3,35,3.13,6.9,5.94,13.93,8.81,20.94.6,1.46,1.2,3.08-.54,4.93-2.94.2-6.48-.28-9.44.81-4.26,1.57-8.54,1-12.79,1.56s-8.47,1.31-12.72,1.73c-8.9.88-17.8,1.58-26.7,2.36a14.43,14.43,0,0,0-2,.19c-9.36,2.19-19,2.62-28.47,3.39a121.52,121.52,0,0,0-16.66,2.38c-5.83,1.29-11.69,3.6-15.31,8.51-7.38,10-10,22.27-3.5,34.42,5.06,9.41,12.11,15.51,22.51,17.66,2.22.46,4.82,1.18,6.74.45,4.25-1.61,8.57-.87,12.82-1.4,4.58-.58,9.14-1.35,13.72-1.79,9.23-.89,18.47-1.61,27.7-2.41a2.88,2.88,0,0,0,1-.07c4.06-2,8.47-1.29,12.73-1.76,4.59-.5,9.14-1.28,13.73-1.75,8.22-.86,16.46-1.58,24.69-2.37a7.76,7.76,0,0,0,1.92-.43c5.1-1.95,10.4-1.35,15.89-1.61,2.23,6.42,4.4,12.59,6.52,18.78,2.87,8.4,5.93,16.74,8.5,25.23,4.19,13.84,7.9,27.82,12.09,41.65a259.37,259.37,0,0,0,20.24,49.29c4.3,7.89,9.66,15.15,16.69,20.87,4.06,3.31,8.38,6.35,14,6.8,7.18.57,12.92-2.41,18-6.86,6.82-5.95,11.7-13.55,16.65-21q51.09-76.76,102-153.63a34.73,34.73,0,0,1,3.39-4.85,5.6,5.6,0,0,1,3.42-1.72c6.94-.38,13.82-1,20.73-1.94,10.15-1.41,20.45-1.76,30.69-2.56a5.83,5.83,0,0,0,2-.14c4.4-2.1,9.15-1.25,13.73-1.73,4.92-.52,9.81-1.3,14.73-1.78,8.89-.87,17.8-1.59,26.7-2.38a3.17,3.17,0,0,0,1-.07c3.72-1.91,7.78-1.34,11.72-1.75,4.26-.44,8.47-1.32,12.72-1.74,9.23-.9,18.47-1.62,27.7-2.42a5.55,5.55,0,0,0,2-.15c4.05-2.11,8.48-1.23,12.74-1.72s8.47-1.58,12.72-1.67c9.63-.2,19-3,28.7-2.5a4,4,0,0,0,2-.14c4.05-2.16,8.49-1.19,12.74-1.7s8.47-1.32,12.73-1.71c10.22-.92,20.46-1.66,30.7-2.48a4,4,0,0,0,1-.07c6.09-2.24,12.44-1.61,18.72-1.73q0,85.47-.07,170.92c0,5.67,0,11.33-.08,17,0,3.33.5,6.88-.46,9.94-2,6.55-2.16,13.51-4.64,19.91-2.22,5.77-3.9,11.69-6.55,17.36-4.19,8.93-9.38,17.19-14.69,25.42a35.48,35.48,0,0,1-4.56,5.26c-4.42,4.54-8.89,9-13.37,13.49-6.77,6.75-13.88,13.05-22.75,17-3.36,3.86-8.46,4.87-12.51,7.6-5.14-.07-8.88,3.87-13.82,4.72S12.83,829.55,7.55,830C3.68,830.37,0,832.18-4,832.14A5.56,5.56,0,0,0-6,831.91c-.64-2.55-1.47-5.06-1.88-7.65a78.08,78.08,0,0,0-9.75-26.68A95.32,95.32,0,0,0-40,771.26C-52.74,760.78-67.4,754-83.78,752.35c-10.76-1.08-21.65-1.09-32.59,1.24a114,114,0,0,0-37.23,15c-12.66,7.93-24,17.24-33.54,29a176.93,176.93,0,0,0-18.74,27.87c-1.21,2.26-2.56,4.46-3.85,6.69l-2.4.22c-2.66-.09-5.32-.25-8-.25q-105.48,0-210.95,0c-3.32,0-6.64.31-9.95.48-3.4-1.35-4.43-4.84-6.27-7.44-9.48-13.41-22.11-22.81-37.06-29-11.06-4.56-22.68-7.13-34.82-6.39-3,.19-6,.13-9,.18-6.33.12-12.4,1.73-18.4,3.46-20.44,5.89-37.82,17-53.28,31.42-2.66,2.48-5.37,4.9-8.06,7.35Z" transform="translate(1326 1236)"/><path class="cls-3" d="M116.21,517.87c-6.28.12-12.63-.51-18.72,1.73a4,4,0,0,1-1,.07c-10.24.82-20.48,1.56-30.7,2.48-4.26.39-8.48,1.2-12.73,1.71s-8.69-.46-12.74,1.7a4,4,0,0,1-2,.14c-9.68-.49-19.07,2.3-28.7,2.5-4.25.09-8.47,1.18-12.72,1.67s-8.69-.39-12.74,1.72a5.55,5.55,0,0,1-2,.15c-9.23.8-18.47,1.52-27.7,2.42-4.25.42-8.46,1.3-12.72,1.74-3.94.41-8-.16-11.72,1.75a3.17,3.17,0,0,1-1,.07c-8.9.79-17.81,1.51-26.7,2.38-4.92.48-9.81,1.26-14.73,1.78-4.58.48-9.33-.37-13.73,1.73a5.83,5.83,0,0,1-2,.14c-10.24.8-20.54,1.15-30.69,2.56-6.91,1-13.79,1.56-20.73,1.94a5.6,5.6,0,0,0-3.42,1.72,34.73,34.73,0,0,0-3.39,4.85q-51,76.83-102,153.63c-4.95,7.43-9.83,15-16.65,21-5.1,4.45-10.84,7.43-18,6.86-5.65-.45-10-3.49-14-6.8-7-5.72-12.39-13-16.69-20.87a259.37,259.37,0,0,1-20.24-49.29c-4.19-13.83-7.9-27.81-12.09-41.65-2.57-8.49-5.63-16.83-8.5-25.23-2.12-6.19-4.29-12.36-6.52-18.78-5.49.26-10.79-.34-15.89,1.61a7.76,7.76,0,0,1-1.92.43c-8.23.79-16.47,1.51-24.69,2.37-4.59.47-9.14,1.25-13.73,1.75-4.26.47-8.67-.27-12.73,1.76a2.88,2.88,0,0,1-1,.07c-9.23.8-18.47,1.52-27.7,2.41-4.58.44-9.14,1.21-13.72,1.79-4.25.53-8.57-.21-12.82,1.4-1.92.73-4.52,0-6.74-.45-10.4-2.15-17.45-8.25-22.51-17.66-6.54-12.15-3.88-24.44,3.5-34.42,3.62-4.91,9.48-7.22,15.31-8.51A121.52,121.52,0,0,1-519,523.84c9.51-.77,19.11-1.2,28.47-3.39a14.43,14.43,0,0,1,2-.19c8.9-.78,17.8-1.48,26.7-2.36,4.25-.42,8.47-1.2,12.72-1.73s8.53,0,12.79-1.56c3-1.09,6.5-.61,9.44-.81,1.74-1.85,1.14-3.47.54-4.93-2.87-7-5.68-14-8.81-20.94-5.32-11.71-10.85-23.33-16.3-35-4.2-9-8.12-18.06-12.67-26.83-18.11-34.92-36.68-69.57-59.63-101.67-9.43-13.2-19-26.27-29.22-38.9-14.7-18.2-31.58-34.28-48.76-50-13.43-12.27-28.2-23-44.75-31-9.85-4.77-20.21-7.86-30.73-10.65-8.15-2.15-16.43-2.44-24.68-2.13-5.43.2-10.51-1-15.66-2a77.39,77.39,0,0,1-13.19-4,22,22,0,0,1-12.38-12.28c-2.25-5.18-3.19-10.71-4.44-16.14-.35-1.5.16-3.27.53-4.86,2.64-11.41,10-18.94,19.89-24.61,6.38-3.67,13.3-5.8,20.29-7.6,23.23-6,46.45-12,69.82-17.44,13.45-3.11,26.87-6.4,40.41-9.14,9.33-1.89,18.59-4.22,27.91-6.2,11.58-2.44,23.13-5,34.7-7.45,10.3-2.17,20.71-3.9,30.91-6.47,8.3-2.08,16.74-3.43,25.07-5.35,9-2.06,18.06-3.55,27-5.58,11.23-2.53,22.67-4.13,33.88-6.75,11.52-2.7,23.24-4.43,34.73-7.32,8.28-2.08,16.86-3,25.28-4.56,8.72-1.66,17.38-3.61,26.09-5.29,5.5-1.06,11.06-1.79,16.58-2.77,7.77-1.38,15.65-2.4,23.26-4.43,6.1-1.63,12.33-2,18.44-3.39,12.52-2.77,25.16-5,37.77-7.36,4.85-.91,9.74-1.6,14.6-2.46,13.93-2.47,27.88-4.78,41.76-7.57,5.13-1,10.38-1.92,15.61-2.55,9.83-1.18,19.59-3,29.27-4.77,8.7-1.61,17.47-3.31,26.17-4.76C-97.5-3-87.38-4.65-77.31-6.3-66.94-8-56.41-8.87-46.16-11.55c5.7-1.5,11.82-1.33,17.62-2.54C-17.9-16.31-7-16.88,3.59-19.48,9.64-21,16-21.11,22.22-22c6.84-1,13.66-2.19,20.48-3.28,5.2-.84,10.39-1.78,15.61-2.47,6.88-.91,14-.89,20.62-2.63,6.45-1.7,13-1.61,19.52-3,5.71-1.25,11.73-1.74,17.58-2.8l3.88-.3c3.55-.46,7.09-1.08,10.66-1.33,3.28-.23,6.57,0,9.59-1.82.76-.45,2-.23,3-.16,7,.45,13.53-3,20.54-2.17,4.63-2.27,9.77-1.28,14.54-2.28s9.93-.86,14.66-1.92c5.55-1.25,11.24-.78,16.57-2C215-49.57,220.69-49,226-50.41c7.42-2,15.23-.54,22.43-3.38,7.34.45,14.39-1.89,21.65-2.32,4.58-.27,9.12-1.25,13.69-1.8s9.34.43,13.71-1.78a5.73,5.73,0,0,1,2-.18c8.22-.78,16.62-.75,24.61-2.55s16.56-.37,24.44-3.31a7.57,7.57,0,0,1,2-.12c9.22-.79,18.63-.68,27.59-2.64,8.14-1.78,16.59-.19,24.46-3.22a4,4,0,0,1,1-.07c9.55-.79,19.11-1.51,28.65-2.41,4.25-.4,8.46-1.21,12.7-1.72s8.65.43,12.73-1.65c.81-.42,2-.18,3-.23,6.26-.32,12.6.13,18.68-1.94,10.66.59,21-2.21,31.66-2.45,5.57-.13,11.12-1.23,16.69-1.74s11.31.4,16.7-1.81a2.56,2.56,0,0,1,1,0c11.64.62,23.06-2,34.65-2.43,10.9-.37,21.71-2.46,32.67-2.11,7.1-2.23,14.45-1.33,21.69-1.88,5.25-.39,10.47-1.17,15.71-1.78,2,2.11,2,2.11,4-.13,8.09-.29,16.22.67,24.26-1.47,3.07-.81,6.5-.31,9.76-.41,2.84,2.39,3.33,2.38,6-.14,11.57-.05,23.13-.14,34.7-.13q40.67,0,81.33.18c2.61,2.61,3.18,2.62,6,.14a145.14,145.14,0,0,1,21.31,1.58c4.13.69,8.46.19,12.7.23,1.92,2.3,1.93,2.3,4,.15,5.91.61,11.81,1.41,17.73,1.78,5.65.36,11.34.07,17,.43,3.56.24,7,1.51,10.6,1.69a36.06,36.06,0,0,1,11.57,2.13c3.33,1.3,6.65,2.67,10.05,3.74,6.67,2.1,11.09,7.1,15.53,12,3.17,3.48,3.93,8.24,5,12.58.56,2.25-.84,5-1.56,7.54-2,7-4.84,13.5-9.86,19-4.16,4.53-9.44,7-15,9-3.37,1.21-6.59,2.31-10.38,2.15-8.64-.35-17.31,0-26-.07a20.34,20.34,0,0,1-4.7-1.08,19.56,19.56,0,0,0-3.73-1c-12.91-.69-25.76-2.52-38.74-2-2.32.1-4.66,0-7-.07-7.29-.08-14.59.14-21.78-1.47l-68,0C727.25-25.8,719.59-26.39,712-26c-2.84-2.4-3.33-2.39-6,.13-7.53.05-15.16-.66-22.55.38-5.84.82-11.65,1-17.47,1.49-2-2.13-2-2.13-4,.14-7.6.1-15.27-.76-22.72,1.57a2.79,2.79,0,0,1-1,0c-13.64-.61-27.08,2.13-40.69,2.47-10.9.28-21.75,2.25-32.71,2-7.08,2.41-14.48,1.3-21.71,1.94-5.25.46-10.48,1.21-15.73,1.7s-10.63-.41-15.74,1.7a9.89,9.89,0,0,1-4,.2c-11.33-.57-22.48,1.64-33.67,2.66-7.9.72-16,.46-23.67,2.08-9.13,1.93-18.4,1.12-27.53,3.05S404.46-2.7,395.25-1.82c-4.26.4-8.47,1.29-12.72,1.7s-8.64-.13-12.72,1.76a5.83,5.83,0,0,1-2,.14c-9.23.81-18.46,1.54-27.68,2.46-3.26.32-6.82.4-9.63,1.82-4.45,2.26-8.91,1.54-13.46,1.78-5.58.29-11.13.22-16.76,1.67-6.64,1.71-13.74,1.58-20.62,2.43a87,87,0,0,0-16.24,3.23,22.52,22.52,0,0,1-6.78.73c-3.28,0-6.64-.81-9.52,1.56a1.56,1.56,0,0,1-.87.43c-3.65.07-7.67-.85-10.84.4a24.9,24.9,0,0,1-9.54,1.59,66.32,66.32,0,0,0-15.74,1.48c-5.35,1.3-11.09,1.26-16.65,2.26-7.13,1.28-14.58,1-21.6,2.66-6.46,1.5-13.09,1.16-19.51,3.07-5,1.49-10.44,1.41-15.65,2-6.89.85-13.65,2.55-20.59,3-4.23.53-8.44,1.27-12.68,1.53-6.62.41-13,2.86-19.69,2.4-5.11,2.84-11.28.58-16.41,3.37-9.58.52-19,2.53-28.4,4-12.68,2-25.39,4-38.1,5.77-10.45,1.45-20.76,4-31.33,4.59-5.32,2.3-11.15,1.31-16.61,2.57-9.63,2.23-19.49,3.13-29.17,5.07-6.14,1.24-12.69.83-18.58,2.69-5.48,1.74-11.12,1.1-16.57,2.89-5.24,1.72-11,1.83-16.58,2.6-6.21.86-12.63,1-18.58,2.72-4.26,1.24-8.52,1-12.71,1.95-6.1,1.37-12.28,2.37-18.45,3.36-5.54.89-11.26,1-16.64,2.44-9.59,2.55-19.43,3.62-29.14,5.19-10.08,1.64-20.24,3.17-30.27,5-12.94,2.29-25.93,4.37-38.84,6.94-12.24,2.44-24.68,4.08-37,6.4-11,2.07-22.06,3.67-33,5.89-13.86,2.8-27.81,5.18-41.69,7.92-17.11,3.37-34.23,6.63-51.28,10.31-9,1.94-18,4-27,5.87s-18,3.91-27,5.93c-8.34,1.87-16.65,3.9-25,5.54-10.34,2-20.38,5.25-30.79,7.06-8.32,1.45-16.41,4.21-24.5,6.36.09,2,1.17,2.59,2.33,3.35a289.29,289.29,0,0,1,43.87,35.84c8,7.94,15.52,16.45,23,24.9,4.61,5.2,8.75,10.81,13.15,16.2,6.91,8.48,13.63,17.11,19.73,26.2,8.28,12.36,16.92,24.49,24.78,37.12,9.59,15.42,18.3,31.39,27.8,46.88,9.87,16.07,18.45,32.84,27.18,49.52,12.25,23.39,23.2,47.42,34.14,71.45,4.23,9.3,8.53,18.57,12.17,28.13.56,1.47,1.83,2.67,2.77,4,1.27,0,2.25,0,3.23,0A183.55,183.55,0,0,0-335,502.38c9.12-1.48,18.44-1.77,27.68-2.57a5.45,5.45,0,0,0,2-.25c3.74-1.9,7.82-1.17,11.75-1.64s7.8-1.3,11.72-1.74c7.89-.89,15.88-1.15,23.67-2.53,9.11-1.61,18.24-2.94,27.44-3.64,4.78-.36,7.81-2.4,10.35-6.37q14.72-23,29.86-45.7Q-146,371-101.24,304.21q29.76-44.54,59.58-89c17-25.3,34.31-50.36,50.82-76,9.4-14.58,26.43-15.23,37.91-12.28,8.68,2.23,16.2,7.29,20.85,15.79,4.77,8.69,6.06,17.37,1.7,26.49a74.76,74.76,0,0,1-4.74,8.71Q51.64,198.29,38.2,218.53q-57,86-114,172c-12.24,18.46-24.61,36.83-36.92,55.25-5.52,8.25-11.12,16.46-16.46,24.83-1.27,2-3.33,4-2.7,7.13,4,0,7.8.71,11.18-.16,5.24-1.36,10.48-1.47,15.76-1.77,1-.06,2.14.2,3-.2,3.45-1.62,7.12-1.33,10.74-1.69,3.93-.39,7.8-1.3,11.73-1.69,9.22-.92,18.46-1.67,27.7-2.48a6.39,6.39,0,0,0,2-.14c4.72-2.2,9.92-.87,14.7-2a78.28,78.28,0,0,1,14.74-1.76c1.34-.06,2.79.21,4-.24,7.91-3,16.37-1.36,24.51-3.25,8.3-1.94,17.08-1.83,25.65-2.62a8.75,8.75,0,0,0,2.94-.32c3.77-1.87,7.85-1.09,11.77-1.59s7.8-1.31,11.73-1.71c8.89-.89,17.9-1,26.67-2.56,9.78-1.72,19.76-1.57,29.43-3.83,3.65.15,7.31.59,10.78-1.09a5.52,5.52,0,0,1,1.92-.38c9.22-.78,18.45-1.49,27.66-2.35,4.92-.46,9.8-1.27,14.71-1.78s10,.41,14.71-1.75a2.17,2.17,0,0,1,1-.07c10,.56,19.72-2.21,29.67-2.42,5.58-.12,11.13-1.19,16.7-1.76s11.32.57,16.71-1.81a4.5,4.5,0,0,1,2-.11c11,.53,21.73-2.19,32.66-2.51,4.58-.13,9.13-1.2,13.71-1.66s9.32.29,13.71-1.76a2.29,2.29,0,0,1,1-.07c10.31.46,20.37-2.35,30.66-2.48,4.57-.05,9.13-1.11,13.7-1.67s9.33.51,13.74-1.59a5.68,5.68,0,0,1,1.95-.27c10.56-.8,21.12-1.53,31.66-2.41,5.91-.49,11.8-1.3,17.71-1.81s12,.47,17.71-1.79a2.51,2.51,0,0,1,1-.05c12,.66,23.73-2.18,35.67-2.24a132.76,132.76,0,0,0,19.75-1.38,54.85,54.85,0,0,1,36.28,7c10.09,5.76,18.14,13.25,21.84,24.57,2.15,6.54,2.08,13.2-1.72,19.09A30.78,30.78,0,0,1,541.6,476c-8.23,4.32-16.76,7.44-26.19,8.19-5.9.47-11.72,1.57-17.7,1.71-3.32.08-6.27-2.49-9.6-.87-9.53-1.67-19.09-.83-28.63-.21-.28,0-.54.35-1.11.75.61.67,1.17,1.84,1.76,1.85,9.29.25,18.59.35,27.88.48,3.53,0,6.67,3.53,10.47,1.18a1,1,0,0,1,.79-.08c8.36,4.06,17.77,4.52,26.38,7.8,16.81,6.41,32.62,14.39,45.66,27.11a13.27,13.27,0,0,0,2.4,1.72c.23.14.65,0,1.55-.09.16-1.77.47-3.63.47-5.5q0-43.93,0-87.89,0-41.44-.12-82.89c0-1.86.86-4-1.32-5.43l-.86-1.49c-.63.47-1.26.94-1.88,1.42-5.92,2.27-10.53,6.66-15.89,9.84C537.76,364.26,519,372.73,498.76,378c-8.9,2.33-18,3.45-26.94,5.74a6.41,6.41,0,0,1-1,.07c-16.51,1.45-33,2.94-49.61,1.94-4.25-.25-8.47-1.15-12.71-1.65-2-.23-4-.16-6-.34-4.15-.38-8.68,1.49-12.32-2-4.48,1-8-2-12-2.94a39.83,39.83,0,0,1-12.34-5.07c-4.06-2.61-9.22-3.37-12.44-7.39-4.75-1-6.91-5.78-11.14-7.81-2.46-1.18-4-4.25-5.94-6.51-.4-.46-.43-1.28-.87-1.65-8.35-7-11-17.54-16.33-26.37-1.39-2.27-.3-5.08-2.56-7.28-1.75-1.69.09-4.87-1.59-7.46-1.24-1.91-.73-5.05-.74-7.64,0-8.62-2.16-17-2.65-25.58v-2.2c.18-2.3.52-4.6.53-6.91.09-17.33.11-34.66.15-52,0-7-1-14.18.3-20.95s.79-13.2,1-19.79c.24-7,0-14,.08-21,0-2.91-.28-5.9.45-8.65,8.34-1.17,53.95-1.42,67-.44,2.1,1.86,1.16,4.35,1.17,6.55.06,30-.12,60,.12,90a303.25,303.25,0,0,0,1.9,31.75c1.17,10.14,4.15,20.14,10.08,28.43,6.13,8.58,13.73,16.08,24.48,19.23,3.74,1.1,7.28,3.13,11.08,3.74,6.83,1.08,13.78,1.42,20.68,2,1,.09,2,0,3,0,18.67.3,18.38-.51,36.25-4,7.61-1.49,15-4.27,22.37-6.84a174.65,174.65,0,0,0,21.37-8.92,169.12,169.12,0,0,0,23-14c4.19-3,8.18-6.32,12.6-9.08,1.91-1.19,3.26-3.26,4.66-4.71a267.05,267.05,0,0,0,1.81-36.11c-.12-29.66-.05-59.32,0-89,0-2.92-.35-5.89.3-8.48,1-.52,1.6-1.05,2.16-1.06,21.62,0,43.23,0,65.37,0,.25,1.85.55,3.4.64,5,.1,2,0,4,0,6q0,281,.07,561.92a90,90,0,0,1-.2,10.68c-15.59,2.91-19.43,3-33.67,1.23a79.22,79.22,0,0,0-9-.09q-12-.08-24-.18c-.24,0-.47-.41-1.36-1.22-.95-10.45.44-21.67-.7-32.64-2.5-.35-3.64,1-4.84,2.07-3.43,3.1-7.11,5.92-10.57,8.9-5.06,4.36-11.29,6.51-16.42,10.52-1.85,1.44-4.56,1.27-6.3,2.37-7.91,5-17.15,6.06-25.62,9.35-3.59,1.39-7.2,3.29-11.32,2.25-4.76,3.43-10.23,1.62-15.39,2-6.58.55-13.17.84-19.76,1.5-8.81.88-17.81,1-26.76-.94-5.44-1.2-11.28-.71-16.94-.71-3,0-5.92.73-8.51-1.57a3.31,3.31,0,0,0-2.83-.45c-3.88,1.44-6.68-2-10.36-2-3,0-6.15-1.46-9.13-2.53-12.33-4.44-28-12.21-37.39-19.77-5.94-4.77-11.05-10.59-16.24-16.22a48.12,48.12,0,0,1-6.76-9.49c-3-5.37-5.2-11.16-8.28-16.45-1.24-2.13-.83-4.66-2.13-6.32-1.63-2.1-1.47-4.21-1.73-6.5-.22-1.85-1.69-3.55-1.9-5.4s-.06-3.73-1.19-5.63c-.92-1.55-.89-3.79-.9-5.72-.06-15.65.28-31.31-.22-46.94-.15-4.51,3.4-7.93,2.26-12.36,2.9-7.43,3.66-15.63,8.23-22.47,2.71-4,3.4-9.29,7.43-12.57,5.29-10.08,13.4-17.39,22.13-24.59,10.46-8.62,22.47-13.52,34.68-18.38,2.41-1,5-1.52,7.46-2.27,4.9.79,9.1-2.28,13.82-2.49,2.14.83,3.65-.69,5.45-1.3a34,34,0,0,1,6.1-1,21.74,21.74,0,0,0-11.57-.84c-2.11.44-4.2,1-6.33,1.27-2.51.31-5.05.35-7.58.51-5.24.53-10.48,1-15.71,1.58s-10.68-.73-15.74,1.68a4.25,4.25,0,0,1-2,.17c-11-.51-21.76,2-32.69,2.44-5.25.21-10.46,1.3-15.71,1.69-5,.37-10.14-.36-14.94.68-5.92,1.29-11.83,1.19-17.75,1.65-4.92.39-9.8,1.25-14.71,1.76s-10-.33-14.73,1.75c-1.14.5-2.64.13-4,.23-9.56.76-19.21,1-28.65,2.52-6.59,1.07-13.14,1.33-19.73,1.85-4.58.36-9.13,1.23-13.71,1.72s-9.33-.35-13.71,1.77a3.2,3.2,0,0,1-1,.07c-9.23.76-18.48,1.36-27.69,2.36-7.88.85-15.71,2.15-23.68,2.17C118.63,516.35,117.42,517.34,116.21,517.87Zm267.68,90.51c.07,9.69-.26,17.7,3.77,25,4.68,16.33,16.45,26.07,31.26,32.37,7.8,3.32,15.87,6.62,24.7,6.48,5.7,2.46,11.83,1.14,17.66,2.1A144,144,0,0,0,480,675.82c5.67.18,11.16-1,16.74-1.51,7.23-.61,14.46-.61,21.68-2.15,10.38-2.22,20.52-4.92,29.66-10.36a53.19,53.19,0,0,0,16.27-14.29c7.75-10.61,10.48-22.54,11.38-35.21.4-5.66-.68-11.16-1.65-16.71-2.26-12.86-7.77-23.92-18.05-32.08a71.49,71.49,0,0,0-21.71-11.63c-15.15-5.13-30.91-6.5-46.65-7.5-10.55-.66-21.13.24-31.73,1.24-13.27,1.25-26.22,3.53-38.3,8.83C404.94,560,394.7,569,389,582.12,385.15,591,383,600.31,383.89,608.38Zm-696.95,14.06c10-14.82,19.56-29.07,29.16-43.32,3.88-5.75,7.82-11.46,11.61-17.28.4-.62.07-1.9-.26-2.73a1.86,1.86,0,0,0-1.68-.69c-8.6,2.89-17.9.4-26.46,3.44-9.69-.56-19.09,2.34-28.72,2.37a33.45,33.45,0,0,0-3.56.37,10.35,10.35,0,0,0-1,2.16,4,4,0,0,0,.12,2q9.31,25.49,18.72,50.93A14.6,14.6,0,0,0-313.06,622.44Z" transform="translate(1326 1236)"/><path class="cls-4" d="M116.26,449.8c-9.67,2.26-19.65,2.11-29.43,3.83-8.77,1.54-17.78,1.67-26.67,2.56-3.93.4-7.81,1.21-11.73,1.71s-8-.28-11.77,1.59a8.75,8.75,0,0,1-2.94.32c-8.57.79-17.35.68-25.65,2.62-8.14,1.89-16.6.28-24.51,3.25-1.19.45-2.64.18-4,.24a78.28,78.28,0,0,0-14.74,1.76c-4.78,1.1-10-.23-14.7,2a6.39,6.39,0,0,1-2,.14c-9.24.81-18.48,1.56-27.7,2.48-3.93.39-7.8,1.3-11.73,1.69-3.62.36-7.29.07-10.74,1.69-.83.4-2,.14-3,.2-5.28.3-10.52.41-15.76,1.77-3.38.87-7.18.16-11.18.16-.63-3.13,1.43-5.14,2.7-7.13,5.34-8.37,10.94-16.58,16.46-24.83,12.31-18.42,24.68-36.79,36.92-55.25q57.06-86,114-172,13.41-20.25,26.68-40.61a74.76,74.76,0,0,0,4.74-8.71c4.36-9.12,3.07-17.8-1.7-26.49-4.65-8.5-12.17-13.56-20.85-15.79-11.48-3-28.51-2.3-37.91,12.28-16.51,25.6-33.86,50.66-50.82,76q-29.82,44.51-59.58,89-44.69,66.84-89.3,133.73-15.14,22.71-29.86,45.7c-2.54,4-5.57,6-10.35,6.37-9.2.7-18.33,2-27.44,3.64-7.79,1.38-15.78,1.64-23.67,2.53-3.92.44-7.8,1.27-11.72,1.74s-8-.26-11.75,1.64a5.45,5.45,0,0,1-2,.25c-9.24.8-18.56,1.09-27.68,2.57a183.55,183.55,0,0,1-20.74,1.92c-1,0-2,0-3.23,0-.94-1.31-2.21-2.51-2.77-4-3.64-9.56-7.94-18.83-12.17-28.13-10.94-24-21.89-48.06-34.14-71.45-8.73-16.68-17.31-33.45-27.18-49.52-9.5-15.49-18.21-31.46-27.8-46.88-7.86-12.63-16.5-24.76-24.78-37.12-6.1-9.09-12.82-17.72-19.73-26.2-4.4-5.39-8.54-11-13.15-16.2-7.5-8.45-15-17-23-24.9a289.29,289.29,0,0,0-43.87-35.84c-1.16-.76-2.24-1.32-2.33-3.35,8.09-2.15,16.18-4.91,24.5-6.36,10.41-1.81,20.45-5.05,30.79-7.06,8.39-1.64,16.7-3.67,25-5.54,9-2,17.95-4.08,27-5.93s18-3.93,27-5.87c17.05-3.68,34.17-6.94,51.28-10.31,13.88-2.74,27.83-5.12,41.69-7.92,11-2.22,22.05-3.82,33-5.89,12.31-2.32,24.75-4,37-6.4,12.91-2.57,25.9-4.65,38.84-6.94,10-1.78,20.19-3.31,30.27-5,9.71-1.57,19.55-2.64,29.14-5.19,5.38-1.43,11.1-1.55,16.64-2.44,6.17-1,12.35-2,18.45-3.36,4.19-.94,8.45-.71,12.71-1.95,6-1.74,12.37-1.86,18.58-2.72,5.56-.77,11.34-.88,16.58-2.6,5.45-1.79,11.09-1.15,16.57-2.89,5.89-1.86,12.44-1.45,18.58-2.69,9.68-1.94,19.54-2.84,29.17-5.07,5.46-1.26,11.29-.27,16.61-2.57,10.57-.59,20.88-3.14,31.33-4.59,12.71-1.76,25.42-3.76,38.1-5.77,9.45-1.5,18.82-3.51,28.4-4,5.13-2.79,11.3-.53,16.41-3.37,6.71.46,13.07-2,19.69-2.4,4.24-.26,8.45-1,12.68-1.53V438.82C116.15,442.48,116.22,446.14,116.26,449.8Z" transform="translate(1326 1236)"/><path class="cls-5" d="M933.47,296.12q33,0,65.93,0a6.92,6.92,0,0,1,1.88.57c1.64,1.67,1.12,3.88.48,5.52-4.68,11.87-9.55,23.66-18.3,33.32-2.2,2.43-4,5.23-6.13,7.71-5.87,6.79-13.6,11.3-20.8,16.39-9.69,6.84-21.8,12-35.16,16.13-3.09.95-6.16,2-9.21,3-.61.22-1.18,1.08-1.68,1A19.3,19.3,0,0,0,899.11,382c-5.08-1.74-9.37,2.29-14.4,1.87a52.54,52.54,0,0,0-14,.52C857.9,386.8,845,385.79,832,385.89c-6.26.05-12.49.13-18.76-1.39-4.76-1.15-9.94-.54-14.94-.76-3.26-.14-7.11.65-9.63-.81-3.09-1.81-6.82.5-9.31-2.4a2.43,2.43,0,0,0-1.77-.7c-7.38.34-13.57-3.64-20.36-5.36-6.06-1.54-11.25-4.63-16.66-7.28a143.78,143.78,0,0,1-16-9,101.56,101.56,0,0,1-36.52-42.68c-2.44-5.21-3.78-10.81-5.79-16.17a33.55,33.55,0,0,1-2.11-6.35c-.35-2.26.22-4.66,0-7-.63-5.91.19-11.89-1.65-17.78a18.29,18.29,0,0,1,0-9.9c1.83-6.55.9-13.22,1.82-19.76.42-2.89-1.44-6.07.93-8.66,2.21-2.41-.1-5.71,2.1-8.41,1.69-2.07,1.78-5.39,2.87-8a100.08,100.08,0,0,1,12.75-22.67c5.22-6.82,11.7-12.78,18.13-18.55a67.48,67.48,0,0,1,14.34-9.87c4.73-2.43,9.22-5.75,14.8-6.34,7.52-4.71,16.57-5.44,24.39-9.4a5.33,5.33,0,0,1,2.8-.61c5.39.62,10.16-2.86,15.52-2.28,3-1.92,6.38-1.33,9.62-1.8,22.81-3.31,45.75-2.32,68.66-2,4.93.06,9.83-.09,14.76,1.51,4.28,1.39,9,.23,13.59,2.18,3.09,1.33,7.18.19,10.41,2.28,9.65.51,18.29,4.52,27.08,7.93a117.93,117.93,0,0,1,30.55,17.34,106.75,106.75,0,0,1,28.2,34.14c4.34,8.21,10.54,23.42,11.55,32.1.77,6.53,2.81,12.83,2.85,19.47,0,4.26-.11,8.52,1.34,12.79a8.77,8.77,0,0,1-2.31,9.34,4.87,4.87,0,0,1-.72.45,3.42,3.42,0,0,1-.94.19,8.34,8.34,0,0,1-1,0H753.7l-1,0a3.24,3.24,0,0,0-1,.06,3,3,0,0,0-.79.57c-.27.55-.86,1.2-.74,1.65a53.29,53.29,0,0,0,2.37,7.41c5.43,12.47,13.76,22.35,26.24,28.24,8.56,4,17.29,7.28,26.85,8.76,17.22,2.65,31.7,4.68,46.3,3.11,7.25-.78,14.49-1.15,21.74-1.75,2.26-.19,4.48-1.56,6.69-1.48,6.1.22,11-3.54,16.85-4.52,5.14-.86,9.78-4.51,14.76-6.65a20.35,20.35,0,0,0,6.37-4.4C923.09,306.09,927.91,301.49,933.47,296.12ZM753.88,233.93c3.31.13,6.23.34,9.14.34q79.9,0,159.79,0h6c1.35,0,2.6-.18,3.14-2.28a49.84,49.84,0,0,0-12.88-19.21,71.52,71.52,0,0,0-27.54-15.06,133.44,133.44,0,0,0-33-5.43c-14.88-.65-29.76-.66-44.68,1.33-13.25,1.76-25.89,4.83-37.54,11.26a50.42,50.42,0,0,0-22.12,24.73C753.72,230.7,754,232.09,753.88,233.93Z" transform="translate(1326 1236)"/><path class="cls-5" d="M1363.13,279.9c-85.67,0-170.62,0-255.56,0-.28,0-.55.36-1,.65,1.14,3.92,1.86,8.1,3.55,11.84A47.1,47.1,0,0,0,1122.25,309a77.31,77.31,0,0,0,28.34,15.1c3.81,1.13,7.9,1.14,11.43,2.41,4,1.43,7.81,1,11.65,1.67,7.87,1.38,15.79,1.45,23.73,1.71,10.67.35,21.11-1.81,31.73-2.16,7-.22,14-2.88,21-4.59,6.29-1.55,12-4.62,17.5-7.85,8.12-4.77,16.26-9.75,20.93-19,12-.48,24-.16,35.94-.22,11.58-.05,23.17,0,35.65,0-3.22,9.26-5.91,17.46-10.3,25.1a111.83,111.83,0,0,1-21.31,27.05c-4.16,3.82-16.85,12.48-22.29,15.56-12.26,6.93-25.77,10.63-38.82,15.51a6.59,6.59,0,0,1-2.82.59c-6.08-.64-11.53,1.69-17.14,3.37a19,19,0,0,1-4.81.65c-7.6.25-15.26-.62-22.73,1.69-1.84.57-4,.22-6,.23-10,0-20,.13-30,0-4.61-.05-9.16,0-13.79-1.33-4.06-1.14-8.6-.56-12.93-.69-3.31-.09-6.62-.1-9.93-.14-2.71-2.85-6.68-.76-9.29-2.08-3.12-1.57-6.76-.54-9.26-2.43-2.88-2.17-6.36-.42-9.34-2.59-2.4-1.74-5.84-2.47-8.82-3.4-7.14-2.22-13.47-6-20.13-9.17a63.55,63.55,0,0,1-16.3-10.91c-2.64-2.45-5.79-4.36-8.41-6.85a84.5,84.5,0,0,1-15.31-20.38c-4.2-7.54-8.75-15-10.92-23.56-2.87-2.17,0-5.84-2.24-8.28-2-2.23-1-5-1-7.63,0-15.32.33-30.65-.21-46-.2-5.44,2.6-10.08,2.32-15.32,2.37-2.83,2.76-6.53,3.66-9.83,1-3.54,3.19-6.3,4.34-9.62,2.53-7.25,7.49-13.07,12.26-18.71s9.5-12,16.66-15.31c5.59-6.12,13.21-9.27,20.13-13.32,4.91-2.87,10.85-4,16.16-6.22,8.44-3.6,17.64-4.53,26.13-7.83,7,.59,13.54-2.94,20.54-2.47,22.14-3.65,44.44-1.86,66.69-1.87,4.61,0,9.18.16,13.75,1.57,4,1.23,8.35.39,12.62,2s8.94,1.21,13.48,2.27a208.14,208.14,0,0,1,22.29,7A106.17,106.17,0,0,1,1315.48,168c.78.58,1.87.79,2.54,1.45,8.28,8.13,17.51,15.4,23.69,25.43,7.36,12,13.67,24.43,16.31,38.43,2.38,3.81,1,8.49,2.74,12.33,1.84,4.2.59,8.6,1.63,12.69,1.51,5.89,1.54,11.8,1.48,17.75A27,27,0,0,1,1363.13,279.9Zm-75-46.76c-3.91-9.61-7.85-16.19-12.64-20.43a71.44,71.44,0,0,0-32.27-16.4c-13.2-2.89-26.64-4.84-40.3-4.37-10.58.37-21.12.3-31.72,1.58a125.71,125.71,0,0,0-28.75,6.62c-14.23,5.24-25,14.62-31.61,28.47-.83,1.75-1.82,3.63.63,5.64,57.85,0,116.08,0,174.31,0C1286.38,234.21,1287,233.7,1288.15,233.14Z" transform="translate(1326 1236)"/><path class="cls-6" d="M1007.5,625.93c-6,.05-11.57.11-17.17.13s-11.33,0-17,0h-187c-5.66,0-11.33,0-17,0s-11.22.1-16.88.14c-1.43,4.52-.11,8,1.29,11.73,3.62,9.77,10.57,17,18.45,22.87A67.06,67.06,0,0,0,797.07,672c10.61,2.45,21.26,4.56,32.24,4.22,2.61-.08,5.21-.14,7.72,1.34a6,6,0,0,0,4.83.25c5.42-2.46,11.11-1.69,16.64-1.6,14.7.22,28.68-3.06,42.29-8,7.25-2.65,14.48-5.66,19.89-11.66,3.79-4.21,7.71-8.29,11.09-11.91,5.62-1.24,10.28-.7,14.91-.79s9.33,0,14,0h15c4.67,0,9.34-.08,14,0s9.21-.51,14.2.55c-3.38,12.85-8.34,24.39-16.12,34.63C985,682.7,982,686.26,979,689.72c-6.39,7.28-14.62,12.34-22.38,17.9a72.09,72.09,0,0,1-18.83,10c-6.76,2.27-13,6.16-20.42,6.4-5.8,3.14-12.87,2.19-18.55,5.72-6.31-1.22-11.85,2.84-18.34,2.21a98.53,98.53,0,0,0-24.92.73,88.49,88.49,0,0,1-24.76.72c-7.61-.94-15.19-1-22.77-1.49-3-.2-6,.09-9,0-2.6-.05-5.31.51-7.63-1.47a4.12,4.12,0,0,0-2.76-.62c-2.68.19-5.15.22-7.54-1.57-2.1-1.56-5.37.87-7.43-1.67-4.47-.49-8.58-2.32-12.9-3.4a61.86,61.86,0,0,1-9.89-3.72c-2.94-1.29-5.7-3-8.61-4.34a113.91,113.91,0,0,1-23.07-13.81c-7.43-6-14.61-12.48-19.78-20.81-3.24-5.23-7-10-9.87-15.62A65.45,65.45,0,0,1,685,653.31c-1-3.63-4-6.9-2.82-11.09-3.33-4.41-1.91-9.54-2-14.36-.22-14.65-.13-29.31-.15-44,0-.67-.23-1.63.12-2,3-2.8,1.73-6.8,2.89-10.16a175.12,175.12,0,0,1,9.28-22.07,62,62,0,0,1,11.17-16.08c1.65-1.65,3.15-3.46,4.92-5,4.22-3.61,7.62-8,12.54-11s9.46-6.88,14.67-9.34c4.85-2.29,9.2-6,15-6.24,5.37-3.26,11.36-4.59,17.39-6.11s11.81-3.77,18.11-3.93c3.6-2.21,7.68-1.48,11.57-2,5.18-.75,10.24-2.1,15.58-2.09,4.92,0,9.91.36,14.78-1.42,2.08-.76,4.63-.14,7-.28,15.65-1,31.15,1.51,46.74,2,3.9.13,7.45,2.44,11.58,2,4-.45,7.39,2.22,11.54,2.19,3.74,0,7.5,1.83,11.23,2.91s7.52,2.06,11.16,3.42a150.61,150.61,0,0,1,33,16.83c13.87,9.53,24,22.18,31.93,37,5,9.3,7.75,19.3,11.34,29,1.31,3.57.25,7.89,2.36,11.47C1006.39,603.58,1009.41,614,1007.5,625.93ZM754,581.69c3.64.12,6.89.32,10.14.32q78.87,0,157.75,0c2.33,0,4.66.09,7-.06a16.15,16.15,0,0,0,3.32-.87,9.44,9.44,0,0,0,0-2.52c-4.85-13.14-14.44-22.09-26.46-28.36-11.79-6.15-24.84-8.86-37.92-9.87-13.57-1-27.27-.43-40.91-.4a117.84,117.84,0,0,0-16.71,1.69,99.31,99.31,0,0,0-31.8,10c-11.15,5.74-18.44,14.81-23.87,25.7C753.92,578.4,754.14,579.82,754,581.69Z" transform="translate(1326 1236)"/><path class="cls-6" d="M1115,526.61c1.7-.85,3.63-.27,5.44-1.82,3.38-2.88,7.39-5.06,11.23-7.39a138.91,138.91,0,0,1,12.52-7.17c5.77-2.73,11.73-5.06,17.5-7.82a61.13,61.13,0,0,1,10.06-3.22,83.21,83.21,0,0,0,10.93-3.57c3.42-1.5,7-1.42,10.42-2.74,4.77-1.84,10.18-2.3,15.36-2.7,4.93-.39,9.46-2.53,14.56-2.34,4.9.19,10,.62,14.74-1.54,9.6.24,19.26-1.2,28.82.88a13.06,13.06,0,0,0,3.9.5c7.7-.72,14.94,2.28,22.53,2.69,4.43.25,8.79,2.29,13.13,3.67,15.85,5,30,12.83,41.74,24.9a84.28,84.28,0,0,1,20,33.45c4.91,15.24,6.37,22.9,6.37,37.6q0,68-.22,136a18.44,18.44,0,0,1-.37,2.68,7.53,7.53,0,0,1-.92.81,1.72,1.72,0,0,1-.88.32q-32,.06-64,.07a15.72,15.72,0,0,1-2.62-.4c-2-2.21-1.14-4.64-1.14-6.86q-.08-48.48,0-97c0-5-.12-10-.14-15a46.32,46.32,0,0,0-1.38-8.76c-.63-3.15-3.07-5.6-2.53-9.35.37-2.55-2.29-5.06-2.1-8.3.12-2-1.47-4.25-2.63-6.18-4.54-7.55-9-15.15-17.41-19.3-1.9-1-17.33-8.24-19.18-8.68a4.65,4.65,0,0,0-1.93-.31c-4.87,1.23-9-.91-13.22-2.74a8.92,8.92,0,0,0-3.87-.63c-7.91.4-15.8-.85-23.78,1.15-4.65,1.17-9.71,1.22-14.55,2.21-3.14.64-5.74,2.74-9.38,2.31-2.71-.33-5.71,1-8.47,2-3.08,1-6,2.55-9.07,3.62-2.74.95-5.73,1.28-8.4,2.38-4.2,1.75-8.24,3.89-12.32,5.91-14.86,7.36-14.89,7.39-30.19,19.39-5.07,1.63-7.62,6.1-11.56,9.94,0,44.31,0,88.88,0,133a11.55,11.55,0,0,1-1.2,1.1,1.63,1.63,0,0,1-.85.38q-31,.07-62,.1c-1.6,0-3.21-.1-4.3-.13a8.46,8.46,0,0,1-1.18-1.21,2,2,0,0,1-.21-.94q0-117.94,0-235.84c.55-.51,1-1.34,1.52-1.34,22.29-.06,44.59-.06,66.57-.06,2,1.33,1.6,3.1,1.62,4.7.12,10.32.2,20.64.3,31a15,15,0,0,0-.15,2.82c.05.37.74.73,1.2,1,.16.07.66-.24.76-.48C1114.45,528.4,1114.72,527.5,1115,526.61Z" transform="translate(1326 1236)"/><path class="cls-3" d="M-607.88,832.24c2.69-2.45,5.4-4.87,8.06-7.35,15.46-14.37,32.84-25.53,53.28-31.42,6-1.73,12.07-3.34,18.4-3.46,3,0,6,0,9-.18,12.14-.74,23.76,1.83,34.82,6.39,14.95,6.18,27.58,15.58,37.06,29,1.84,2.6,2.87,6.09,6.27,7.44.69,3.52,1.18,7.22,3.21,10.21,3.42,5,4.36,10.9,5.48,16.53.76,3.81,2.66,7.31,2.47,11.46-.4,8.95.68,18-.42,26.85A115.85,115.85,0,0,1-437.11,924c-4.75,12.62-12.18,23.66-19.45,34.82a30.32,30.32,0,0,1-3.95,4.47c-4.42,4.5-8.89,9-13.32,13.44-12.8,12.94-28.09,21.69-45.37,27.15-1.85.58-4.08.88-5.38,2.1-2.89,2.7-6.16,1.81-9.38,1.83-3-2.21-3.52-2.17-6,.39l-9.82.69a12.43,12.43,0,0,0-8.4-.06l-5.86-.51c-1.79-2.45-1.85-2.46-4-.45-6.42.83-12.25-1.28-17.85-4-3.77-1.79-8.41-2-11.1-5.88-3.91-1-6.89-3.48-10.09-5.78a103.05,103.05,0,0,1-22-22.43c-3.5-5.07-7.41-9.92-9.52-15.75-1.41-3.88-3.79-7.58-3.22-12,2.11-2.1,2.09-2.21-.47-4a16.76,16.76,0,0,0-.07-3.95c-2.22-8.76-1.36-17.67-1.38-26.53a27.59,27.59,0,0,0,0-4A23.14,23.14,0,0,1-642,891.26c3-7.32,4.78-15.06,8.5-22.14,5.58-10.63,11.3-21.1,19.3-30.17.77-.88.73-2.49,2.27-2.84C-609.69,835.73-608.66,834.11-607.88,832.24Z" transform="translate(1326 1236)"/><path class="cls-3" d="M-209.73,832.19c1.29-2.23,2.64-4.43,3.85-6.69a176.93,176.93,0,0,1,18.74-27.87c9.51-11.77,20.88-21.08,33.54-29a114,114,0,0,1,37.23-15c10.94-2.33,21.83-2.32,32.59-1.24,16.38,1.64,31,8.43,43.76,18.91a95.32,95.32,0,0,1,22.43,26.32,78.08,78.08,0,0,1,9.75,26.68c.41,2.59,1.24,5.1,1.88,7.65,0,.7.08,1.4.11,2.09-.05,1.66-.15,3.32-.15,5,0,15.58-1,23-6.17,38.54-4.57,13.72-11.61,26.14-20.13,37.84a156,156,0,0,1-15.62,17.91c-7.86,7.91-16,15.6-25.77,21.09-6.21,3.48-12.77,6.34-19.2,9.41-1.75.83-3.76,1.19-5.39,2.19a10.7,10.7,0,0,1-7.38,1.92,10.69,10.69,0,0,0-5.81.7c-2.55,1.24-5.13,1.26-7.74,1.29-9,.08-18,.27-26.91-.06-3.77-.14-7.23-2.57-11.17-2.6-7.35-4-15.43-6.33-22.57-11.11C-198,944-210.11,927.55-217,907.22c-1.82-5.37-3.84-11-2.78-17.17.61-3.55-.08-7.3,0-11,.12-4.26-.41-8.52,1.39-12.74,1-2.31.85-5.29.54-7.89-.64-5.47,1.3-10.18,3.43-14.94,1-2.3.35-5.26,2.76-7C-209.78,835.61-209.86,833.85-209.73,832.19Z" transform="translate(1326 1236)"/><path class="cls-7" d="M203.7,380.72V59.38c1-.65,1.54-1.28,2.09-1.31,21.05-.85,58-.39,65.64.77a3.2,3.2,0,0,1,.58.76,2.87,2.87,0,0,1,.09,1c0,1.67.07,3.33.07,5l0,314.8q-30.28,0-60.59,0C209,380.35,206.34,380.59,203.7,380.72Z" transform="translate(1326 1236)"/><path class="cls-8" d="M356.25,828.3c4-6.71,10.05-11,16.86-14.43,1.24-.62,2.5-.07,3,1.93-4.63,5.18-10.81,9.31-14.82,15.62,2.73,8.36,11.5,11.94,15.14,19.37-2.92,1.92-5.19,1.55-7.36-.74-3.66-3.86-7.38-7.66-11.21-11.35a2.62,2.62,0,0,0-4.25,1.91c-.25,2.63-.09,5.3-.32,7.94a5.15,5.15,0,0,1-1.34,2.58,2.35,2.35,0,0,1-1.79.56,3.59,3.59,0,0,1-1.56-.93,1.26,1.26,0,0,1-.45-.84q-.06-17-.07-33.92a1.16,1.16,0,0,1,.33-.86,7.1,7.1,0,0,1,2.41-1.24c.39-.07,1.33.72,1.38,1.18.24,2.62.35,5.26.4,7.9,0,2-.4,4,.92,5.76C355.2,830.54,355.36,830.52,356.25,828.3Z" transform="translate(1326 1236)"/><path class="cls-9" d="M1340.05,822.36c0,5,0,10.66,0,16.31,0,4.67-1.65,8.18-6,10.34-1.12.56-1.92,1.76-2.85,2.65h-17.77c-1.71-6.26-2-18.38-.91-36.64,1.09-1.72,2.85-1.38,4.45-1.41,2.66-.05,5.33.11,8,0C1331.63,813.22,1336.57,815.82,1340.05,822.36Zm-23.53-3.85c0,7.82.22,14.75-.06,21.65-.33,7.9,2.29,7.5,8.24,7.27a20.72,20.72,0,0,0,4.76-1.13c4.64-1.32,6-2.89,6.21-7.56.16-4.3.12-8.61,0-12.91a7.58,7.58,0,0,0-6.48-7.55A40.28,40.28,0,0,0,1316.52,818.51Z" transform="translate(1326 1236)"/><path class="cls-9" d="M508.13,813.92c6.15-.57,11.42-.24,16.67-.31a32.67,32.67,0,0,1,5.94.25c.61.1,1.45,1.45,1.4,2.16a2.62,2.62,0,0,1-1.75,1.87,64.75,64.75,0,0,1-7,.16h-9.24c-3,2.72-1.94,5.54-2,8.08A3.76,3.76,0,0,0,516,829.9c4,.1,8,0,12,.08a6.86,6.86,0,0,1,2.77.69,2,2,0,0,1,.84,1.56c0,.53-.49,1.44-.89,1.51a41.8,41.8,0,0,1-5.81.64c-2.66.1-5.32,0-8,0-3.58.12-4.63,1.22-4.8,4.81,0,1,0,2,0,3s.17,1.93.24,2.64c1.19,2,2.94,1.64,4.55,1.75l12.85.85c1.49.1,2.64,1.28,2.43,2.43-.3,1.65-1.55,1.94-2.89,1.94-6.62,0-13.24,0-20.39,0a35.25,35.25,0,0,1-.76-4.9C508.1,836.35,508.13,825.74,508.13,813.92Z" transform="translate(1326 1236)"/><path class="cls-9" d="M1238.12,846.37c6.37.39,11.65.67,16.91,1.07a5.45,5.45,0,0,1,2.6,1c.39.27.43,1.1.52,1.69a1,1,0,0,1-.4.77,3.88,3.88,0,0,1-1.72.86c-6.93.1-13.85.18-20.65,0-1.59-7-1.85-21.28-.75-36.86,1.12-1.66,2.89-1.31,4.48-1.29,6,.06,11.9.15,17.85.41.46,0,1,1.44,1.22,2.29.07.35-.7,1.22-1.17,1.28-1.94.27-3.91.36-5.87.44-3.93.18-7.9-.36-11.34.36-2.39,2.32-1.65,4.77-1.63,7,0,2.91,1.44,4.42,4.11,4.51,3.65.11,7.31,0,11,.05a6.54,6.54,0,0,1,2.93.27,3.84,3.84,0,0,1,1.41,2.29c.09.37-.65,1.36-1.08,1.4-2.61.27-5.25.39-7.88.47-2,.07-4,0-6,0-3.33.15-4.41,1.38-4.52,5.08C1238.07,841.44,1238.12,843.38,1238.12,846.37Z" transform="translate(1326 1236)"/><path class="cls-9" d="M586.73,813.7c5.72,0,10.69-.14,15.64,0,4.72.18,10,4.24,11.33,8.31,1.41,4.31-1.2,10.74-5.57,13.73a11,11,0,0,1-7.27,2.18c-3.18-.2-6.54-.77-10.17.86,0,3.3,0,6.55-.14,9.8a6.88,6.88,0,0,1-1.11,2.57.92.92,0,0,1-.78.41,3.56,3.56,0,0,1-1.68-.68,2.78,2.78,0,0,1-.75-1.72q-.09-15.9-.08-31.81A30.7,30.7,0,0,1,586.73,813.7Zm4.94,4.35c-2.22,3.56-.9,7.28-1.08,10.77s1.12,4.68,4.8,4.61c2.92,0,5.86.56,8.76-.79,3.49-1.62,6.09-5.32,5.44-8.43a8.21,8.21,0,0,0-7-6.11C599,817.89,595.37,818.05,591.67,818.05Z" transform="translate(1326 1236)"/><path class="cls-10" d="M434.32,820.06v7.88c-.35,1.51.22,2.1,1.74,1.74,4.31.11,8.62.16,12.92.36a5.28,5.28,0,0,1,2.64,1c.39.26.42,1.13.48,1.74,0,.22-.3.6-.55.7a8.53,8.53,0,0,1-2.68.85c-4.6.09-9.2,0-13.17,0-2.29,2.2-1.59,4.29-1.66,6.18s.14,3.91.25,6.25c4.74,1.17,9.36.29,13.89.62a27,27,0,0,1,4.75.76c.38.1.78,1.05.74,1.57a2.32,2.32,0,0,1-.95,1.51,3.37,3.37,0,0,1-1.82.53c-6.61,0-13.22,0-19.23,0-2.32-1.42-2-3.18-2-4.78q0-14.94,0-29.89a19,19,0,0,1,.66-3.25,73.82,73.82,0,0,1,9.84-.24c4,0,8,.09,11.94.17a1.18,1.18,0,0,1,.8.49c.34.49.82,1.06.8,1.58s-.52,1.44-.91,1.49c-2.25.33-4.53.52-6.8.63-3.31.16-6.63.22-9.94.32C434.55,818,434,818.54,434.32,820.06Z" transform="translate(1326 1236)"/><path class="cls-10" d="M1160.32,820.06v7.88c-.35,1.51.22,2.1,1.74,1.74,4.31.11,8.62.17,12.92.36a5.4,5.4,0,0,1,2.63,1c.39.27.43,1.13.49,1.74,0,.22-.3.6-.55.7a8.58,8.58,0,0,1-2.69.85c-4.59.09-9.19,0-13.16,0-2.29,2.2-1.59,4.29-1.66,6.18s.14,3.91.25,6.25c4.74,1.17,9.36.29,13.89.62a27.19,27.19,0,0,1,4.75.77c.37.09.77,1,.73,1.57a2.3,2.3,0,0,1-1,1.5,3.46,3.46,0,0,1-1.82.53c-2.66.06-5.32.05-8,.05h-11.2c-2.37-1.46-2.07-3.22-2.08-4.81q0-15,0-29.89a12.14,12.14,0,0,1,.51-2.54c.88-.39,1.45-.86,2-.86,6-.08,12-.08,17.93-.08a11.93,11.93,0,0,1,2,.16,1.35,1.35,0,0,1,.8.49c.34.49.82,1.06.8,1.58s-.52,1.44-.91,1.49c-2.25.33-4.53.52-6.8.63-3.31.16-6.63.22-9.94.32C1160.55,818,1160,818.54,1160.32,820.06Z" transform="translate(1326 1236)"/><path class="cls-9" d="M1096,841.77c0-7.32,0-15.3,0-23.27a12.86,12.86,0,0,1,.68-3.78c.14-.41,1-.79,1.56-.8a2.2,2.2,0,0,1,1.55.79,3.09,3.09,0,0,1,.57,1.78c0,8,.19,16,0,24a12.26,12.26,0,0,1-11.46,11.62,46.22,46.22,0,0,1-8.95-.35c-5.27-.64-7.86-3.1-8.19-8.26-.38-6-.29-12-.35-18,0-3.33,0-6.67.21-10,.05-.59,1.37-1.53,2.07-1.5s2,1,2.06,1.6c.17,6,.13,12,.15,18,0,2,.17,4,0,6-.42,4.25,2,6.77,6.16,7.87s8.61,1.34,11.33-3.39c.26-.45,1.12-.53,1.65-.86C1095.24,843.07,1095.36,842.7,1096,841.77Z" transform="translate(1326 1236)"/><path class="cls-9" d="M921.31,813.87c2.28-.08,4.85-.25,7.43-.26,4.63,0,9.27,0,13.9.18.57,0,1.51,1.37,1.5,2.1s-1,2-1.6,2c-5.61.16-11.22.1-16.58.1-2.29,4.83-2.23,4.83-1,12,4.07.45,8.25.92,12.44,1.37a10.71,10.71,0,0,1,2.93.26c.74.33,1.66,1.29,1.65,2a2.75,2.75,0,0,1-1.56,2.1,24.49,24.49,0,0,1-4.93.19h-9.81c-1.94,3.54-.74,6.9-1.1,10.09a36.12,36.12,0,0,1-.73,4.77c-.1.4-1,.83-1.55.83a2.34,2.34,0,0,1-1.55-.87,3.07,3.07,0,0,1-.59-1.79q0-16.39,0-32.79C920.22,815.54,920.75,815,921.31,813.87Z" transform="translate(1326 1236)"/><path class="cls-11" d="M203.7,380.72c2.64-.13,5.28-.37,7.91-.38q30.3,0,60.59,0c-.22.95-.45,1.9-.66,2.78a6.11,6.11,0,0,1-1.92.77q-30.47,0-60.94,0c-1,0-2.25.31-2.9-.17C204.85,383.07,204.37,381.77,203.7,380.72Z" transform="translate(1326 1236)"/><path class="cls-10" d="M798.41,820c-.13,8.62-.24,17.25-.43,25.87a22.93,22.93,0,0,1-.66,4.8c-.1.4-1,.85-1.54.85a1.88,1.88,0,0,1-1.5-.88,13.68,13.68,0,0,1-.62-3.81c-.06-7.31,0-14.62,0-21.93v-6.17c-3.61-1.28-7-.38-10.13-.9a2.68,2.68,0,0,1-1.57-2.07c0-.69,1-2,1.59-2q12.47-.16,24.91.07c.51,0,1.42,1.48,1.34,2.18a2.67,2.67,0,0,1-1.84,1.79c-2.61.36-5.27.41-7.91.57C798.58,818.05,798.05,818.58,798.41,820Z" transform="translate(1326 1236)"/><path class="cls-9" d="M998.29,851.83c-.06-4-.15-7-.15-9.88q0-12.94.05-25.89a1.16,1.16,0,0,1,.32-.87,7.15,7.15,0,0,1,2.4-1.24c.38-.07,1.27.72,1.36,1.21a30.89,30.89,0,0,1,.34,4.9c0,7-.06,14,0,20.92,0,4.32,1,5.22,5.07,5.61,3.61.34,7.24.54,10.83,1a2.53,2.53,0,0,1,1.42,2c-.09.77-1.07,2-1.69,2.05C1012,851.89,1005.71,851.83,998.29,851.83Z" transform="translate(1326 1236)"/><path class="cls-9" d="M724.14,833c0-5.31,0-10.62.05-15.93a5.18,5.18,0,0,1,.94-2.65c.26-.4,1.12-.45,1.73-.53.23,0,.57.28.74.52.35.51.9,1.08.9,1.63q.09,16.41,0,32.84a3.06,3.06,0,0,1-.6,1.79,2.35,2.35,0,0,1-1.57.88,1.9,1.9,0,0,1-1.54-.83,12.86,12.86,0,0,1-.68-3.78c-.07-4.65,0-9.29,0-13.94Z" transform="translate(1326 1236)"/><path class="cls-12" d="M488,487.92c-9.29-.13-18.59-.23-27.88-.48-.59,0-1.15-1.18-1.76-1.85.57-.4.83-.74,1.11-.75,9.54-.62,19.1-1.46,28.63.21C488.07,486,488,487,488,487.92Z" transform="translate(1326 1236)"/><path class="cls-13" d="M409.85,491.59c-4.72.21-8.92,3.28-13.82,2.49l-.11-3.82c2.53-.16,5.07-.2,7.58-.51,2.13-.27,4.22-.83,6.33-1.27C409.83,489.52,409.84,490.55,409.85,491.59Z" transform="translate(1326 1236)"/><path class="cls-13" d="M-558.19,1008.8a12.43,12.43,0,0,1,8.4.06c-.2,3.11-2.34,3.08-4.71,3.15S-558,1011.05-558.19,1008.8Z" transform="translate(1326 1236)"/><path class="cls-11" d="M816-95.94c-2.82,2.48-3.39,2.47-6-.14C812.25-98.68,813.94-98.64,816-95.94Z" transform="translate(1326 1236)"/><path class="cls-13" d="M706-25.87c2.65-2.52,3.14-2.53,6-.13C709.94-23.33,708.24-23.29,706-25.87Z" transform="translate(1326 1236)"/><path class="cls-13" d="M694-96.13c-2.65,2.52-3.14,2.53-6,.14C690.05-98.67,691.76-98.71,694-96.13Z" transform="translate(1326 1236)"/><path class="cls-13" d="M-540,1008.17c2.49-2.56,3-2.6,6-.39C-535.88,1010.66-537.63,1010.77-540,1008.17Z" transform="translate(1326 1236)"/><path class="cls-13" d="M654-94.11c-1.93,2.24-1.93,2.24-4,.13C651.66-96.7,652.2-96.72,654-94.11Z" transform="translate(1326 1236)"/><path class="cls-14" d="M854-94c-2,2.15-2.06,2.15-4-.15C851.81-96.7,852.34-96.68,854-94Z" transform="translate(1326 1236)"/><path class="cls-11" d="M-642.3,938c2.56,1.77,2.58,1.88.47,4C-644.59,940.5-644.66,939.94-642.3,938Z" transform="translate(1326 1236)"/><path class="cls-13" d="M-568,1007.84c2.13-2,2.19-2,4,.45C-565.93,1010.7-566.52,1010.64-568,1007.84Z" transform="translate(1326 1236)"/><path class="cls-13" d="M662-23.86c1.93-2.27,1.93-2.27,4-.14C664.34-21.3,663.8-21.29,662-23.86Z" transform="translate(1326 1236)"/><path class="cls-15" d="M-607.88,832.24c-.78,1.87-1.81,3.49-4,3.87-.08-1.23-.15-2.47-.23-3.71Z" transform="translate(1326 1236)"/><path class="cls-15" d="M119.91-36.52l-3.88.3a3,3,0,0,1,.4-1.91C117.74-37.92,119.35-38.36,119.91-36.52Z" transform="translate(1326 1236)"/><path class="cls-12" d="M1115,526.61c-.31.89-.58,1.79-1,2.65-.1.24-.6.55-.76.48-.46-.22-1.15-.58-1.2-1a15,15,0,0,1,.15-2.82Z" transform="translate(1326 1236)"/><path class="cls-15" d="M-209.73,832.19c-.13,1.66-.05,3.42-1.92,4.3l-.48-4.08Z" transform="translate(1326 1236)"/><path class="cls-14" d="M311.61,273.9v2.2C309.78,275,309.78,275,311.61,273.9Z" transform="translate(1326 1236)"/><path class="cls-16" d="M434.32,820.06c-.36-1.52.23-2.09,1.74-1.74Z" transform="translate(1326 1236)"/><path class="cls-17" d="M798.41,820c-.36-1.44.17-2,1.61-1.61Z" transform="translate(1326 1236)"/><path class="cls-12" d="M571.57,343.78c.62-.48,1.25-.95,1.88-1.42l.86,1.49Z" transform="translate(1326 1236)"/><path class="cls-18" d="M356.25,828.3c-.89,2.22-1.05,2.24-2.69.44Z" transform="translate(1326 1236)"/><path class="cls-16" d="M436.06,829.68c-1.52.36-2.09-.23-1.74-1.74Z" transform="translate(1326 1236)"/><path class="cls-16" d="M1162.06,829.68c-1.52.36-2.09-.23-1.74-1.74Z" transform="translate(1326 1236)"/><path class="cls-12" d="M-5.85,834c0-.69-.07-1.39-.11-2.09a5.56,5.56,0,0,1,2,.23Z" transform="translate(1326 1236)"/><path class="cls-16" d="M1160.32,820.06c-.36-1.52.23-2.09,1.74-1.74Z" transform="translate(1326 1236)"/><path class="cls-19" d="M383.89,608.38c-.86-8.07,1.26-17.38,5.11-26.26,5.7-13.13,15.94-22.09,28.67-27.67,12.08-5.3,25-7.58,38.3-8.83,10.6-1,21.18-1.9,31.73-1.24,15.74,1,31.5,2.37,46.65,7.5a71.49,71.49,0,0,1,21.71,11.63c10.28,8.16,15.79,19.22,18.05,32.08,1,5.55,2,11,1.65,16.71-.9,12.67-3.63,24.6-11.38,35.21a53.19,53.19,0,0,1-16.27,14.29c-9.14,5.44-19.28,8.14-29.66,10.36-7.22,1.54-14.45,1.54-21.68,2.15-5.58.48-11.07,1.69-16.74,1.51a144,144,0,0,1-18.75-1.49c-5.83-1-12,.36-17.66-2.1-8.83.14-16.9-3.16-24.7-6.48-14.81-6.3-26.58-16-31.26-32.37C383.63,626.08,384,618.07,383.89,608.38Z" transform="translate(1326 1236)"/><path class="cls-20" d="M-313.06,622.44a14.6,14.6,0,0,1-2.05-2.78q-9.42-25.44-18.72-50.93a4,4,0,0,1-.12-2,10.35,10.35,0,0,1,1-2.16,33.45,33.45,0,0,1,3.56-.37c9.63,0,19-2.93,28.72-2.37,8.56-3,17.86-.55,26.46-3.44a1.86,1.86,0,0,1,1.68.69c.33.83.66,2.11.26,2.73-3.79,5.82-7.73,11.53-11.61,17.28C-293.5,593.37-303.08,607.62-313.06,622.44Z" transform="translate(1326 1236)"/><path class="cls-21" d="M409.85,491.59c0-1,0-2.07,0-3.11a21.74,21.74,0,0,1,11.57.84,34,34,0,0,0-6.1,1C413.5,490.9,412,492.42,409.85,491.59Z" transform="translate(1326 1236)"/><path class="cls-22" d="M753.88,233.93c.11-1.84-.16-3.23.3-4.31a50.42,50.42,0,0,1,22.12-24.73c11.65-6.43,24.29-9.5,37.54-11.26,14.92-2,29.8-2,44.68-1.33a133.44,133.44,0,0,1,33,5.43,71.52,71.52,0,0,1,27.54,15.06A49.84,49.84,0,0,1,931.94,232c-.54,2.1-1.79,2.27-3.14,2.28h-6q-79.89,0-159.79,0C760.11,234.27,757.19,234.06,753.88,233.93Z" transform="translate(1326 1236)"/><path class="cls-22" d="M1288.15,233.14c-1.19.56-1.77,1.07-2.35,1.07-58.23,0-116.46,0-174.31,0-2.45-2-1.46-3.89-.63-5.64,6.59-13.85,17.38-23.23,31.61-28.47a125.71,125.71,0,0,1,28.75-6.62c10.6-1.28,21.14-1.21,31.72-1.58,13.66-.47,27.1,1.48,40.3,4.37a71.44,71.44,0,0,1,32.27,16.4C1280.3,217,1284.24,223.53,1288.15,233.14Z" transform="translate(1326 1236)"/><path class="cls-22" d="M754,581.69c.19-1.87,0-3.29.49-4.34,5.43-10.89,12.72-20,23.87-25.7a99.31,99.31,0,0,1,31.8-10A117.84,117.84,0,0,1,826.82,540c13.64,0,27.34-.64,40.91.4,13.08,1,26.13,3.72,37.92,9.87,12,6.27,21.61,15.22,26.46,28.36a9.44,9.44,0,0,1,0,2.52,16.15,16.15,0,0,1-3.32.87c-2.32.15-4.65.06-7,.06q-78.89,0-157.75,0C760.84,582,757.59,581.81,754,581.69Z" transform="translate(1326 1236)"/><path class="cls-17" d="M1316.52,818.51a40.28,40.28,0,0,1,12.67-.23,7.58,7.58,0,0,1,6.48,7.55c.12,4.3.16,8.61,0,12.91-.18,4.67-1.57,6.24-6.21,7.56a20.72,20.72,0,0,1-4.76,1.13c-6,.23-8.57.63-8.24-7.27C1316.74,833.26,1316.52,826.33,1316.52,818.51Z" transform="translate(1326 1236)"/><path class="cls-17" d="M591.67,818.05c3.7,0,7.33-.16,10.94.05a8.21,8.21,0,0,1,7,6.11c.65,3.11-2,6.81-5.44,8.43-2.9,1.35-5.84.74-8.76.79-3.68.07-5-1.09-4.8-4.61S589.45,821.61,591.67,818.05Z" transform="translate(1326 1236)"/></svg>